<?xml version="1.0" standalone="no"?>
<!DOCTYPE svg PUBLIC "-//W3C//DTD SVG 1.1//EN" "http://www.w3.org/Graphics/SVG/1.1/DTD/svg11.dtd">
<svg xmlns="http://www.w3.org/2000/svg">
<metadata>Generated by Fontastic.me</metadata>
<defs>
<font id="digio" horiz-adv-x="512">
<font-face font-family="digio" units-per-em="512" ascent="480" descent="-32"/>
<missing-glyph horiz-adv-x="512" />

<glyph glyph-name="arrow-down" unicode="&#97;" d="M507 369l-26 25c-3 3-7 5-11 5-5 0-9-2-12-5l-202-193-202 193c-3 3-7 5-11 5-5 0-9-2-12-5l-26-25c-3-3-5-7-5-11 0-4 2-9 5-11l239-229c7-6 17-6 24 0l239 229c3 2 5 6 5 11 0 4-2 8-5 11z"/>
<glyph glyph-name="facebook" unicode="&#98;" d="M393 475c23 0 42-8 58-24 16-16 24-35 24-58l0-274c0-23-8-42-24-58-16-16-35-24-58-24l-54 0 0 170 57 0 9 66-66 0 0 42c0 11 3 19 7 24 5 5 13 8 26 8l35 0 0 60c-12 1-29 2-51 2-26 0-46-7-62-23-15-15-23-36-23-64l0-49-57 0 0-66 57 0 0-170-152 0c-23 0-42 8-58 24-16 16-24 35-24 58l0 274c0 23 8 42 24 58 16 16 35 24 58 24z"/>
<glyph glyph-name="twitter" unicode="&#99;" d="M481 395c-13-18-28-34-46-47 0-3 0-7 0-12 0-25-3-50-11-74-7-25-18-49-33-71-14-23-32-43-52-61-21-17-45-31-74-41-29-11-60-16-92-16-52 0-99 14-142 42 7-1 14-2 22-2 43 0 81 14 115 40-20 0-38 6-54 18-16 12-27 27-33 46 7-1 13-2 18-2 8 0 16 1 24 4-21 4-39 15-53 31-14 17-21 37-21 59l0 1c13-7 27-11 42-11-13 8-23 19-30 32-8 14-11 29-11 44 0 17 4 33 12 47 23-28 51-51 84-68 33-17 69-27 107-29-2 8-3 15-3 22 0 25 9 47 27 65 18 18 40 27 66 27 26 0 49-10 67-29 21 4 40 11 59 22-7-22-21-39-41-51 18 2 35 7 53 14z"/>
<glyph glyph-name="instagram" unicode="&#100;" d="M392 358c16 0 29 13 29 30 0 16-13 29-29 29-17 0-30-13-30-29 0-17 13-30 30-30z m75 105c-26 27-63 41-106 41l-206 0c-88 0-146-58-146-146l0-205c0-44 14-81 42-108 27-26 63-39 105-39l204 0c44 0 80 14 106 39 27 26 41 63 41 107l0 206c0 43-14 79-40 105z m-4-311c0-32-11-57-29-74-18-17-43-26-74-26l-204 0c-31 0-56 9-74 26-18 18-27 43-27 75l0 205c0 31 9 56 27 74 17 17 43 26 74 26l206 0c31 0 56-9 74-27 17-18 27-43 27-73z m-205 233c-70 0-128-58-128-129 0-71 57-129 128-129 71 0 129 59 129 129 0 70-59 129-129 129z m0-211c-45 0-82 37-82 82 0 45 37 82 82 82 45 0 82-37 82-82 0-45-37-82-82-82z"/>
<glyph glyph-name="youtube" unicode="&#101;" d="M427 427l-323 0c-62 0-87-50-87-112l0-118c0-62 28-112 89-112l318 0c62 0 83 50 83 112l0 118c0 62-18 112-80 112z m-214-243l0 139 133-70z"/>
<glyph glyph-name="face-message" unicode="&#102;" d="M256 512c-141 0-256-115-256-256 0-141 115-256 256-256 141 0 256 115 256 256 0 141-115 256-256 256z m37-323l-79 47-97-47 107 110 65-42 106 66z"/>
<glyph glyph-name="app-store" unicode="&#103;" d="M453 165c-8-24-19-48-35-72-25-37-49-56-74-56-9 0-22 3-40 10-16 6-30 9-43 9-11 0-25-3-40-10-16-6-28-9-38-9-29 0-58 24-86 74-28 49-42 97-42 143 0 44 11 79 32 107 21 28 49 41 81 41 14 0 31-3 51-8 20-6 33-9 39-9 9 0 22 3 41 10 20 6 36 10 50 10 22 0 43-7 60-19 10-7 20-16 30-29-15-12-26-24-32-33-13-18-19-38-19-59 0-24 7-45 20-64 13-19 28-31 45-36z m-108 335c0-12-2-25-8-39-6-14-14-27-26-39-11-11-21-17-31-21-7-2-17-4-30-5 1 29 8 53 22 74 14 20 38 34 72 42 0-1 0-2 0-3 1-2 1-3 1-3 0-1 0-2 0-3 0-1 0-2 0-3z"/>
<glyph glyph-name="play-store" unicode="&#104;" d="M478 274l-93 54-77-74 70-68 100 58c6 3 9 9 9 15 0 7-3 12-9 15z m-109 63l-103 60-226 115 255-246z m-325-337l222 122 96 55-67 65z m-19 502l0-496 257 248z"/>
<glyph glyph-name="insany-design" unicode="&#105;" d="M256 26l32 57 128 0-96 169-128-226-64 0 192 345 192-345z m-192 0l-64 0 256 460 32-57z"/>
<glyph glyph-name="viagem" unicode="&#106;" d="M35 222c0 0-1 0-1-1l0 1c0 0 0 0 1 0 0 0 0 0 0 0z m58 87c-1-1-1-1-1-1l0 1 1 0z m-61-94l-1 0c0 0 0-1 0-2l0 0c1 1 1 1 1 2z m5 7c0 0 0 2 0 2-1 1-1-1-1-1-1 0-1 0-1 0-2 0-2-1-2-2l0-3c0 0 0 0 1 0 0 0 0 0 0 0 0 1 1 2 1 2 1 1 1 1 2 2z m6 11c0 0 0 1 0 2 0 0 0 0 0 0-1 0-1 0-1 0-1-1-3-2-2-4 0 0 0-1 0-1l0-1c0 0-1-1 0-1 0 0 1 1 2 1 0 0 0 1 0 1 0 1 1 1 1 2 0 0 0 1 0 1z m8 11c0 1 0 1 0 1 0 0-1 1-1 1 0-1-1-1-1-1l0-1c0 0 1 0 1 0 1 0 1 0 1 0z m3 6c0 0 0 1 0 1 0 0-1 0-1 0 0 0-1-1-1-1 0 0 0-1 0-1 1 0 1 1 2 1z m6 9c0 0 0 1-1 1-1 0-1 0-1-1 0 0 0 0 0 0 0 0-1-1-1-1 1 0 1 0 1 0 0 0 0 0 0 0 1 0 1 0 2 1z m4 8l-1 0c0 0 0 0 0 0 0-1 0-1-1-1-1-1-1-2-2-3-1 0 0-1 0-1 0 0 1 0 1 0 1 1 1 1 1 1 1 1 1 3 2 4z m5 1c0 0 0 0 0 0-1-1-1-1-1-1l0 0c0 0 1 0 1 0 0 0 0 1 0 1z m-1 3c0 2 0 2-1 2-2-1-2-1-2-3 1 0 1-1 2 0 0 1 1 1 1 1z m2-1l0 1c0 0 0 0 0-1 0 0 0 0 0 0 0 0 0 0 0 0z m0 4c0 1 1 2 0 3 0 0 0 0 0-1-1 0-1 0-2-1 0 0 1-1 1-1 1 0 1 0 1 0z m8 12l0 0c-1 0-2 0-2 0-2 0-3 0-3-2-1-1-1-3-2-4-1 0-1-1-1-1 1 0 1-1 1-1 1 1 2 1 2 1 1 1 1 2 2 2 0 1 0 1 1 1 0 1 1 2 2 3 0 0 0 0 0 1z m3-7c0 0 0 0 0 0 0 0-1 0-1 0 0 0 0-1 0-1l0 0c0 0 1 0 1 1z m-4 15l1 0-1 0 0-1z m7 0c0 0 0 1-1 1 0 0-1 0-1 0 0-1 0-1 0-1-1-2-2-2-4-3-1 0-2 0-2 0 0 0-1 0-1 0l0-1c1 0 1 0 1 0 2 0 3 0 4 0 0 0 1 0 1 0 0 1 1 1 1 2 0 1 0 1 2 2z m3 5c0 0 0 0-1 0 0 0 0 0-1 0 0 0-2 0-2 0-1-1-1-2-2-2 1 0 2 0 3-1 0 0 1 0 1 1 1 0 2 1 2 2z m10 7c0 0 0 1 0 1-2 0-2 0-1 1 0 0 0 0 0 1 1 0 1 1 1 1 0 1-1 0-2 1-2 0-3-2-5-2l-1 0c0 0 1-1 1-1 0-1 0-1-1-2 0 0-1-1-2-1-1 0-2 0-2-1 0 0 0 0 1-1 0 0 1 0 1 0 1 0 1 0 1-1 1 0 1 0 2 1 1 1 2 1 3 1 1 1 2 1 2 1 1 0 2 1 2 1z m10 15c0 1 0 1-1 1-1 0-3-1-4-1 0 0-1-1-1-1-1-1-2-3-3-4-1 0-1-1-1-1 0-1 0-2 0-2 0 0 1 0 1 0 0 0 0 0 0 0 1 1 1 1 3 2 0 0 1 0 1 1 1 1 2 3 4 4 1 0 1 1 1 1z m-5 3l0 0 0 0 0-1z m9 12c-1-1-1-1-2-2 1 1 1 1 2 2z m4 4c-1 0 1 1 1 1-3-1-4-2-5-4l0 0c1 0 1 0 1 0 0 0 0-1-1-1 2 1 3 2 4 3 0 0 0 1 0 1z m5 4c-2 0-3-1-4-2 2 0 3 1 4 2z m3-2c0 0-1 0-1 0-1 0-1 0-2-1 1 0 1 0 1 0 1 0 2 0 2 1z m3 3l0 0 0 0 0 0z m13 9c0-1-1-2-1-2-2-1-3-3-5-3-2-1-3-2-4-3 0 0 0 0 0 0 0-1-1-2-2-2-1-1-1-1-2-2-1 0-2-1-3-2 0 0-1 0-2 0-3-1-4-2-5-4-1-1-2-2-3-3-1-1-1-1 0-2 0 0 0 0 0 0 2 0 2 0 1-2l-1 0c0 0 0 0 0 0-1 0-1 1-1 1-1 0-2 0-2 0-2-1-3-2-5-4 1 0 1 0 0-1 0-1 0-1 0-2 0 0 0 0 0 0 0 0 1 0 1 0 0 0 1 1 1 1 1 1 1 1 2 0 0 0 1 0 1 0 1 0 2 1 2 2 1 0 2 1 3 2 1 2 3 3 4 4l0 0c1 0 1 0 1 0-1-1-1-1-1-2-1-1-2-2-3-3-2-2-3-5-6-7 0 0-1-1-1-2-1-1-2-2-2-3 0-1-1-1-2-2 0 0-1 0-1 0 0-1 0-2 0-2-1-1-2-2-3-3 0 0-1-1-1-1-1-1-1-2-1-2 1-1 1-1 1-1 0-1 0-1 0-1 0-1-1-1-1-1-2 0-2 0-3-1-1-2-3-3-4-5-1-1-1-2-2-2 0-1 0-1 0-1 0-1 1-1 1-1 1 0 1 0 1-1 0 0-1-1-1-1-1 0-1 0-1 0-2 0-3-1-4-2 0-1-1-2-2-4 0 0-1 0-1-1l2 0c0 0 1 0 1-1-1 0-1-1-1-1-1-1-2-3-3-4-1-1-2-2-3-3-1 0-1 0-1 0 1-2 0-4-1-6-1-1-2-2-2-3-1 0-1-1-1-1-2 0-3-2-5-3 0-1 0-1 0-1 1-1 1-2 0-3-1-1-2-3-4-4-1 0-1-1-1-2 1-1 0-2-1-4-1-1-2-3-3-5 0-2-1-3-2-4-1-1-1-2-2-3 0-1 0-2-1-3 0 0 0-1-1-1-3-4-4-8-6-11 0-1 0-1-1-1-2-2-2-5-4-7 0 0 0-1-1-1 0 0 0-1 0-1-2-3-3-6-5-8 0-1 0-1-1-2-1-3-2-5-3-8-1-2-2-4-3-6-1-1-1-2-1-2-2-2-3-3-4-5-1-1-2-1-3-2-1 0-2 0-3 0-1 0-3-1-4 0-1 0-1 1-1 0-2 0-3 1-4 1-1 0-1 1-2 2 0 0-1 1-2 1-1 1-3 1-3 3 0 0-1 1-1 1-1 0-1 1-1 1 1 3 2 6 2 8 0 1 0 1 0 2 1 2 1 4 1 6 0 1 0 1 0 2 1 3 0 5 0 8 1 3 1 5 1 8 0 2 0 4 0 6 0 3 1 5 0 9 0 2 0 4 1 7 0 0 0 0 0 1-1 3 0 6 0 9 0 2 0 4 0 6 0 1 1 3 0 5 0 0 0 0 0 0 0 2 0 3-1 5l0 1c2 1 1 3 0 4 0 1 0 1 1 2 0 0 0 1 0 1 0 2 1 5 2 7 0 0 0 1 0 2 0 0 0 1 0 1 1 2 1 4 0 5 0 2 0 3 0 5 0 1 0 2 0 3 0 2 2 3 3 3 0 1 1 1 1 1 3 1 6 1 8-1 2 0 3-1 4-1 2-1 3-2 4-3 2-1 3-4 4-6 0 0 0 0 0-1 0-1 0-3 0-4 0-1-1-3-1-4-1-1-1-2-1-3 0-1 0-2 0-2 1-2 0-4 0-6 0 0-1 0 0-1 0-2-1-5-1-7-1-2-1-5-1-7 0-1 0-2 0-3 0-1 0-1 0-2-1-2-1-3-1-5 0-1-1-2-1-3 0-1 0-3 0-4 0 0 1-1 0-1l0-1c1-2 1-4 0-6 0-1 0-1 0-1 0-2 0-3 0-5 0 0 0 0 0 0 0-1 0-1 1-1 0 0 1 0 1 1 1 2 2 3 3 5 0 1 2 2 2 4 0 0 1 0 1 0 2 1 3 2 3 3 0 1 0 2-1 3-1 0 0 0 1 1 0 0 0 0 1 0 0 0 0 0 0 0 1 0 2 0 2 0 0 1 0 2 1 2 2 1 3 2 3 4 0 1 0 2 2 2 0 0 0 0 0 0 1 1 0 2 1 3 1 0 1 1 1 2 1 0 1 1 2 2 1 1 2 2 2 3 0 1 0 1 0 1 1 1 2 3 3 4 1 0 1 1 2 2 0 1 1 2 2 4 0 0 0 1 0 1 2 0 2 1 2 2 1 1 1 1 1 2 2 1 2 2 3 4 0 1 1 2 1 3 1 0 1 1 2 1 2 2 4 4 5 7 0 0 0 0 1 1 1 0 1 2 2 3 0 0 1 1 1 1 2 1 2 3 3 4 1 0 1 0 1 1 0 1 2 2 3 3 1 1 2 2 2 3 0 1 0 2 1 2 0 0 1 0 1 1 1 1 3 1 3 3 2 2 2 4 5 6 2 1 4 4 6 6 1 2 2 3 3 4 2 1 3 3 4 4-1 0-1-1-1-1-3 0-4-1-5-2-3-3-6-7-9-10-2-2-4-3-5-5-1-1-2-2-2-2-1-1-1-2-2-3-1-1-2-2-2-4 0 0-1-1-1-1 0 0-1 0-1 0-1-1-2-1-2-2-1-1-3-3-3-5 0-1 0-1-1-1 0 0 0 0 0-1-1-1-2-2-3-3-1-1-2-2-2-3-1-2-3-3-4-4-1-1-1-2-1-2-1-2-2-4-4-6-1 0-1-1-2-2 0-1 0-1 0-1-2-2-3-5-5-7-1-2-3-4-5-7-2-3-4-6-5-9-1 0-1 0-1-1 0 0-1 0-1-1l0 0c-1 0 0-1-1-1l0 0c-1 0 0 1 1 1l0 0c-1 1 0 2 1 3 1 2 2 4 4 6 0 1 1 1 1 1 0 2 1 4 3 6l0 0c2 3 4 6 6 9 1 1 1 2 2 2 0 2 1 3 2 4 0 0 0 1 0 1 3 3 5 6 6 9 1 0 1 0 1 1 3 2 4 5 6 8 1 1 2 3 4 4 1 1 2 2 3 4 1 2 3 5 6 7l1 1c2 3 4 5 7 8 2 2 4 4 6 6 2 2 3 4 5 5 3 3 6 6 9 8 0 0 1 0 1 0 1 1 2 3 4 4 2 0 3 1 5 2 3 2 7 3 11 5 0 0 1 0 1 0 2 1 2 0 3 0z m-53-66l1-1-1 0c0 1 0 1 0 1z m7 7c0-1 0-1-1-1 0 0 0 1 0 1 1 0 1 0 1 0z m0 23l-1 0c0 0 0 0 0 0 0 0 0 0 0 0 0 1 1 0 1 0z m3 4l0 0z m20 11l0 0-1 0 1 0c0 0 0 0 0 0z m-25-117c0 0 0 0 0 0 0 0-1 0-1 0 0 0 1 0 1 0 0 0 0 0 0 0z m4 38c0 0-1 0-1 0 0 0-1 0-1 0 0-1-2-2-2-3 0-1-1-3-1-3-1 0-1-1-1-1 0-2 0-4 0-6 0 0 0 0 0 0-1-1 0-2-1-3 0 0 0 0 1 0 0 0-1 0-1 0-2-1-1-2-2-2-1-1-1-2 0-2 0-1 0-1-1-1-1 0-1 0-1-1 0 0 0 0 0 0 2-1 2-1 1-2 0 0 0-1 0-1 0-1-1-2-1-4-1-1 0-2-1-4-1 0-1 0-1-1 0 0 0-1 0-1 1 0 1-1 1-2 0 0 0 0 1 0 0 0 0 0 0 0 1 1 1 1 1 1 0 2 2 3 1 4 0 1 0 1 0 1 1 1 2 2 0 3 0 0 0 0 0 0 1 1 1 2 2 2 1 1 1 2 1 3 0 1 0 1 1 2 0 0 0 1 0 2 0 0-1 0-1 1-1 0-1 0 0 1 0 0 1 0 1 0 0 2 1 3 2 4 1 1 0 1 0 2-1 1-1 1 0 2 1 0 1 1 0 2 0 0 0 0 1 1 0 0 1 1 0 1 0 0 0 1 1 1 1 1 1 2 1 4z m2 2c0 1-2 2-2 2 0 0-1 0-1-1 0 0 0 0 0-1 0 0 1-1 1-1 0 0 1 0 1 0 0 1 1 1 1 1z m0 4l0 1c-1 0-1 0-1 0 0 0-1 0-1 0 0 0-1-1-1-1 0 0 0 0 1-1 0 0 0 0 1 0 0 0 0 1 0 1 0 0 0 0 1 0z m0 3l0 0-1 0 1-1c0 1 0 1 0 1z m2 3l0 1c-1 0-1 0-1 0 0 0-1 0-1 0 0-1 0-1 0-2 1 0 1 0 1 0 0 0 0 1 1 1z m25 20c-2-3-4-6-4-9 0 0-1 0-1 0 0-1-1-2-1-2-1-3-3-7-4-10-1-1-2-2-2-3 0-1-2-2-2-3 0-1 0-3 0-4-1 0 0 0-1 0-1-1-1-3-2-4 0-1-1-2 0-4 0 0 0 0 0 0-1-1-1-2-2-3-1-1-2-3-2-5 0 0 0 0 0-1 0 0-1-1-1-1-1-1-1-1-2-1-1 0-2 0-2-1-1-1-1-2-1-3 1-1 1-1 2-1 0 0 0 0 1 0 0-1 0-1-1-1 0-1-1-1-1-1 1 0 1-1 0-1-2 0-3-1-3-2 0-1 0-2-1-3-1-1 0-1-1-2 0-1 0-1 0-2 1 0 0 0 0 0-1 0-1 0-1-1 0 0 0-1 0-1 0 0 1 0 2-1 1 0 1 0 0-1-1-1-1-1-1-2 0-1-1-2-3-3-1 0-2-1-1-2 0-1-1-3-1-4 0-1-1-1-1-1 0 0-1 0-1 0 1 1 0 2-2 2-1 1-1 1-1 2 1 1 0 2 1 3 0 1 0 2 1 3 2 1 2 2 1 4l0 0c-1-1-2-1-2-1-2 0-2-1-2-2-1 0-1-1-1-1 0-1 0-2 1-3 1 0 1 0 0-1-1 0-1 0-1 0l-1-4c0 0 0-1 0-2-1-1-1-2-2-4 0-1 0-1 0-2 1-1 1-2 0-3 0 0 0 0 0 0 0-1 0-3 0-4 0 0 0 0 0 0-1 0-2 0-2 0 0 0 0 0-1 1 0 0 0 1 0 2 0 4 1 8 1 13 1 1 1 2 1 2l0 0c1 4 2 7 2 11 1 1 1 3 1 4 1 3 1 5 2 8 0 1 1 2 1 2 0 3 1 6 2 9 1 1 1 2 1 3 0 4 3 8 4 11 1 3 2 7 3 10 1 3 3 6 4 10 0 1 1 2 1 4 1 1 1 2 2 3 0 2 1 4 0 6-1 1-1 1 0 2 3 2 6 3 10 2 1 0 2 0 3 0 2 1 4 0 6 0 1-1 2-1 3-2 0 0 0-1 0-1 0-1 0-1 1-2 1 0 1-1 1-2z m-27-103l0 0 0 1c0 0 0 0 0 0z m-1 2l0 0 0 0z m1 2l0 0 0 0 0 0z m5 6c-1 0-1 1-1 2 1 2 2 3 2 5-2-2-3-3-4-5 0-1 0-1 0-1-2-1-1-2-1-3 0-1 0-1 1-1 1 0 1 0 2 0 1 1 2 2 1 3z m6 5c0 1 0 1 0 1l-1 0-1-1c0-1 0-1 0-1 0 0 1 0 1 0 0 1 1 1 1 1z m0 3c-1 0-1 0-1 0-1-1-1-1-1-1 0 0 1 0 1 0 0 0 0 0 0 0 1 0 1 1 1 1z m3 5c-1 1-1 1-1 1l0-1c0 0 0 0 0 0z m2-1l-1 0 0-1z m-1 4l1 1 0 0c0 0-1 0-1 0z m3-1l0 1-1-1c0 0 1 0 1 0 0 0 0 0 0 0z m4 10l2 0z m17 24l-1 0c-1 1-1 1-2 0-1-1-2 0-1 1 0 0-1 0-1 0 0 0 0 0-1 0 0-1-1-3-2-4-1-2-2-4-4-6-3-4-6-8-8-12 0-1-1-1-1-2-2-2-3-3-4-5-2-3-3-5-5-7-1-3-2-5-3-7 2 1 3 3 4 4 1 3 2 6 4 8 1 1 3 2 3 4 0 0 0 0 0 1 2 1 3 3 5 4 0 1 0 1 0 1 0-1 0-1 0-1l0-1c1 0 1 0 1 1 1 0 1 0 2 1 0 0 0 1-1 1 0 0 0 0-1 0-1 0-1 0 0 1 0 1 0 2 1 2 1 1 2 2 3 4 1 1 2 3 3 5 0 0 0 0 0 0 1 0 1 0 2 0 0 0 0 0 0 0 0-1 0-1 0-1l0-1 1 0c1 1 2 2 3 3 2 2 3 3 3 6z m-11-18l0 0c0 0 0 0 0-1-1-1-2-2-3-3 0 0 0 0 0 0 0 0 1 0 1 0 1 1 2 2 2 3z m4 5c0 0 0 1 0 1-2-1-3-1-4-2-1-1-2-2-3-4 0 0 0 0 0 0l0 0c1 0 1 0 1 0 1 2 3 2 4 3 1 0 2 1 2 2z m38-23c1 1 1 2 1 3 0 0-1 0-1 0 0 0 0 0 0 0-1-1-2-2-2-4l0-3c0 0 1 0 1 0 0 0 0 0 1 0 0 1 0 1 0 1 0 1 0 2 0 3z m-29 39c0 1 0 1 0 1-1 0-2 0-2 0 0-1 1-1 1-2 1 1 1 1 1 1z m29-34l1 0 0 1c-1 0-1 0-1-1-1 0 0 0 0 0z m3 5c0 1-1 2 0 4 0 0 0 0 0 1 0 1 0 1 1 2 0 1 0 1 0 1-1 1-1 1-1 1 0 1-1 1-1 1 0 0-1-1-1-1 0-2 0-4-1-6 0-1 0-3 0-5 0 0 1 0 1-1 0 0 1 1 1 1 1 1 1 1 1 2z m-26 45l1 2c-2-1-3-3-5-5 0-1-1-2 0-2 1 0 1 1 2 1 1 1 1 1 1 2 0 1 1 1 1 2z m2 3l0 0 0 0c0 0 0 0 0 0z m0 0c0 0 0 0 0 0z m29-20c0 1 0 1-1 1-1 0-2-1-2-1-1-1-2-2-3-2l-1-1c0 0 0 0 0 0 0-1 1-1 1-1l1 0c1-1 1-2 1-3-1-2-1-4-2-6l0 0c0 0 0-1 0-2 0-1 0-1 1-1 0 0 1 0 1 1 1 2 2 4 2 6 0 1 0 1 0 1 0 2 0 3 1 4 0 0 0 0 0 0-1 1 0 1 0 2 1 0 1 1 1 2z m-19 27c1 1 0 3 0 3-2-1-2-1-3-2 0 0 0-1 0-1-1 0-1-1-1-1-3 0-4-2-5-3 0-1 0-2 1-1 0 0 1-1 0-1 0-2-1-3-3-4 0-2-1-3-2-4 0-1 0-1 0-1l1 0c1 0 2 1 2 2 1 1 1 3 3 4 1 0 2 1 3 2 0 0 1 1 1 1 0 0 0 1 0 1 0 0-1 1 0 1 1 1 0 1 1 2 0 0 1 1 2 1 0 1 0 1 0 1z m17-25l-1 0 1 0c0 0 0 0 0 0z m-3 12c-1 2-1 4 0 6 0 0 0 1 0 1 0 1 0 2 0 2 1 1 1 2 0 4 0 1 0 1 0 3 1 0 1 1 1 1 0 0 0 1 0 1 0 0-1 0-1 0 0-1-1-1-1-1-1-2-2-3-4-4-1-1-1-2-2-3 0-1 0-3-1-3-3-3-3-5-5-8 0 0 0 0 0 0-1 0 0-1 0-1 1 0 2-1 4-1l4 0 1 0c2 0 4 2 4 3z m-10 20l0 0c0 1-1 1-1 0-1 0-1-1-2-2 0 0-1 0 0-1 0 0 1 1 1 1 1 1 1 1 2 2 0 0 0 0 0 0z m15-18c0 0 0 1 0 1-1 0-1-1-1-1 0 0 0-1-1-1 0 0 0-1 1-1 0 0 0 0 0 0 0 0 0 0 0 0 1 1 1 1 1 2z m0 3c0 0 0 1 0 2 0 0 0 0 0 0-1 0-1 0-1 0 0-1 0-1 0-1 0-1 0-1 0-2 0 0 0 0 1 0 0 0 0 0 0 1z m-10 21c-1 0-1 1-1 0-2 0-3-1-3-3-1 0 0 0 0 0 0 0 0 0 0 0l3 2c0 1 0 1 1 1z m2 5c0 0 0 0 0 0-1 0-2-1-2-2 0 0 0 0-1-1l1 0c0 0 1 0 1 1 0 0 1 1 1 2z m2 3l0 0z m23-44c-1-1-1-2-2-2-1 0-1 0-1 0-2-1-3-1-3-3-1-1-1-3-1-4 0 0 0 0 0-1 0-2 0-4 0-6-1-1-1-1-1-2-1 0-1-1-1-2 1-1 1-2 1-3-1-4-1-8-2-12 0-1 0-3-1-4 0-1-1-2-1-3 0-1 0-2 0-2 0-3 0-6-1-9 0-1-1-2-2-3 0 0-1-1-1-1-3 0-7-2-10 0 0 0-1 0-1 0-1 2-3 2-5 4-1 1-1 2-1 4 1 3 2 6 3 9 0 2 0 3 0 4 0 1 1 1 1 2 2 0 2 0 0 1-1 0 0 2 0 3 1 1 2 2 1 3 0 1 1 2 2 2 0 0 0 1 0 1l-1 0c0 0-1-1-1 0 1 2 1 3 2 4 0 1 0 2 0 4 0 1 1 2 1 3 0 1 1 2 2 3 0 0 0 1-1 1-1 0-1 0-1 1 0 2 0 5 1 7 0 0-1 1-1 1-1 0-2 0-2 0-4 0-8 0-12 0-2 0-3-1-3-2-1-1-2-2-2-2-2-2-3-3-4-5 0-1-1-2-1-3 0-1-1-2-2-3-2-2-4-4-4-7-1-1-1-2-2-2-2-1-2-3-2-4 0-1-1-2-2-3-1-1-2-2-3-3-1-1-2-3-3-4 0 0 0-1 0-1-2-2-3-4-4-6-1-2-2-4-3-6l0 0c1 0 1 0 1 0-1-1-1-2-1-2 0-1 0-1-1-2-1-1-2-3-2-4-1-1-1-1 0-2 0 0 0-1-1-1-1-1-2-2-3-3 0-1-1-2 0-3 1 0 0-1 0-2-1 0-2-1-2-1-2 0-5-1-7-1-2 0-3 0-4 2-1 0-1 0-2 0-3 1-4 3-4 5 0 3 1 5 3 7 0 1 1 1 1 2 0 3 2 6 4 9 2 3 4 7 7 11 0 1 1 1 1 2 1 1 2 2 3 4 0 0 0 1 1 1 2 2 3 4 4 7 1 2 2 3 3 5 1 1 1 1 2 2 0 1 0 1 0 1 3 3 5 5 6 7 0 1 0 1 1 2 1 2 0 2-2 2-4 0-7 0-11-1-3-1-6-2-9-2-2 0-3-1-4-2-1 0-1-1-2-1 0-1-1-1-2 0-1 0-2 1-3 2 0 0 0 1 1 1 1 2 2 2 4 3 3 2 8 3 12 5 2 0 3 1 5 1 1 0 1 0 1 0 5 0 9 3 14 3 3 1 5 3 6 5 2 3 4 5 5 7 1 1 1 2 2 3 1 3 4 5 4 7 1 2 1 3 3 4 0 1 1 1 1 1 1 2 1 3 2 4 2 1 2 3 3 4 0 1 1 2 2 3 3 4 4 8 7 12 0 0 0 1 0 1 0 1 0 2 0 3 1 0 1 1 1 2-1 0 0 1 1 1 2 1 3 2 5 3 0 0 0 0 1 0 4 1 8 0 11-1 2-1 3-3 3-5 0-1 0-2-1-3 0-2-1-3 1-4 0 0 0-1 0-2 0-3 0-6 0-8 0-1 1-2 1-3 0 0 0-1 0-1-1-2 0-4 0-5 0-1 0-2 0-3-1-2 0-4-1-6-1 0 0-1 0-1 1-1 1-3 0-4 0-1-1-3-1-5 0-1 0-2 0-3 0 0-1 0-1-1-2 0-1-1 0-2 1-1 1-3 1-4-1-2 0-3 1-4 1 0 1 0 2 0 0-1 1-1 1-1z m8-34c0 0 0 0 0 0l-1 0c0 0 0-1 0-1 0 1 1 1 1 1z m1 11c0 0 0 0 0 0-1 1-1 0-2 0l0 0c1 0 1-1 1-1 0 0 1 1 1 1z m5 11l0 0c0 1 0 1 0 1-1 0-1-1-1-1z m0 2l0 0 0 0c0 0 0 0 0 0z m36-41l-1 0c0 0 0 0 0 0l0-1c0 0 0 0 1 0 0 1 0 1 0 1z m-31 47l0 1c-1 0-1 0-1 0-1-1-1-1-2-1 0 0 0-1 0-2 0 0 0 0 1 0 0 0 0 0 0 0 1 0 1 1 1 1 0 1 1 1 1 1z m42-51l1 0c0 1 0 1 0 1-1 0-1-1-1-1 0 0 0 0 0 0z m-38 56l0 0c-1 1-2 2-3 0 0 0-1 0-1 0 0-1 0-1 0-1 2-1 3 0 4 1 0 0 0 0 0 0z m45-56l0 1c0 0 0 0-1 0l1-1c0 0 0 0 0 0z m-9 11l1 0 0 0c0 0-1 0-1 0z m5-2l0 0c0 0 0 0 0 0-1 0-2-1-3-1l0 0c1-1 2 0 3 1z m-39 47l0 0 0 0c0 0 0 0 0 0z m0 4c0 0 0 0 0 0 0 0-1 0-1 0 0 0-1 0-1 0 0 0-1-1 0-1 0 0 0 0 0 0 1 0 1 0 2 1z m38-47l0 0 0 0c0 0 0 0 0 0z m-40 53c0 0 0 0-1 0l0 0c0 0 0 0-1-1 1 0 1 0 1 0 0 0 0 1 1 1z m2-3l1 1c0 0 0 0-1 0l0 0-1 0z m2 3l1 1c0 0 0 0 0 0 0 0 0 0-1 0z m5 4c0 1 0 1 0 1 0 0-1 0-2 0 0 0-1 0-1-1-1 0-1 0-1-1 0 0 1 0 1 0 0-1 0-1 0-1 1 1 2 1 3 2z m7 11c0 1 0 1 0 1 0 0 0 1-1 0 0 0-1 0-1-1-1 0-1 0-1 0l1 0c0 0 0 0 0-1-1-1-2-2-3-3-1-1-1-2-2-2-1-1 0-1 0-1 0 0 1-1 1 0 1 0 1 1 2 1 1 2 2 4 3 5 1 0 1 1 1 1z m2-1c0 0 0 1 0 1-1 0-1-1-1-1l0 0c1 0 1 0 1 0z m-1 9l0 0 0 0 0 0z m4-2l0 0c-1 0-1 0-2-1 0 0 0 0 0 0 1 0 1 1 2 1z m3 5c1 0 1 1 0 1 0 0 0 0 0 0-1-1-2-2-2-3 0 0 0 0 0 0 0 0 0 0 1 0 0 1 1 2 1 2z m4 2l0 0c-1 0-2 0-2 0 0 0 0 0 0 0 0 0 0 0 0 0 0 0 1 0 1 0z m51-2c0 0 0-1 0-1-1-1-2-2-2-3 0 0-1 0-1-1 0-2-1-3-1-5 0-1-1-1-1-2-3-2-5-2-8-2 0 0-3 3-3 3 0 1 0 1 0 1 1 2 0 4 0 6 1 2 1 3 1 5 0 1 0 3 0 5 0 0 0 0 0 1 0 0 1 1 0 2l0 2c0 1 0 2 0 3 0 1 0 1 0 2 0 2-1 4-1 6 0 1 0 1 0 1-1 1-1 2-2 1-1 0-2-1-3-1-1-1-1-2-2-2-1-1-3-2-4-3 0-1 0-1 0-1-1-2-2-2-3-3-1-1-2-2-3-3-1-1-1-2-2-2 0-1 0-1 0-2 0 0 0-1 0-1-1-1-1-1-2-2-1 0-1-1-2-2 0-1-1-1-1-1-1 0-1 0-1 0-1-1-2-2-2-2-1 0-1-1-1-1-1-1-2-2-3-4 0-1-1-1 0-2 0-1 0-1-1-2 0 0-1-1-2-1-1 0-1-1-2-2 0 0 0 0 0 0-2-1-1-2-2-3 0-1 0-2-1-2-1 0-1-1-1-1 0-2-1-2-2-3 0 0-1-1-1-1 0-1 0-1-1-2 0 0-1 0 0-1 0 0-1-1-1-1 0 0 0 0-1 0-1-1-1-1-1-2-1-1-2-2-3-3-1 0-1 0-2-1-1 0-1-1-1-1 1-1 1-1 0-1 0-1-1-1-1-2 0-1-1-2-2-2 0-1 0-1 0-1 0-1 0-1 0-1 0 0 1 0 1 0l0 0c0-1 0-1 0-1l-2-1c0-1 0-1 0-1 0-1 0-1 0-2-1 0-1-1-2-1 0-1-1-1-1-2 1-1 0-1 0-2 0 0-1-1-1-1 0-1-1-2-1-2 0-3-2-5-4-6-1 0-1 0-1 0 0 0 0 0 0-1 0 0 0 0 0 0l1 0c0 0 0 0 0-1-1 0-1-1-1-1-1-1-1-1 0-1 0 0 0-1 0-1 0-1 0-2 0-2 0-2 0-3-1-5 0-1 0-2 0-3 0-1 0-1 0-2-1-2-1-4 0-5 0-1 1-2 1-3 0 0 0-1 1-1 0-1 1-2 2-3 1-1 3-1 5-1 1 0 2 1 3 1 1 0 1 1 2 1 2 1 4 2 6 3 1 0 1 1 1 1 4 2 7 4 10 7 1 1 2 2 3 3 2 1 3 3 5 4 0 0 0 0 0 0 0 1 1 2 1 2-1 0-1 0-2-1-1-1-3-3-4-4-1-1-1-1-1-2-3-2-6-4-9-6-1-1-2-1-2-2-1 0-1-1-2 0 0 0 1 0 1 1 1 0 2 1 3 1 0 1 1 1 2 2 1 1 2 3 4 4 2 2 4 3 5 5 1 2 2 3 3 4 0 1 1 2 2 2 0 1 1 1 1 1 1 2 2 3 3 4 0 1 1 1 1 2 0 0 0 1 0 1-1-1-1-1-2-1 0 0-1 0-2 0-1 0-2 0-3 1-1 0-2 0-2 1 0 0-1 0-1 0-1 1-2 1-2 1-1 1-1 1-2 1-1 0-2 0-3 0 0 0-1 0-1 1 0 0-1 0-2 1 0 0-1 0-1 1-1 0 0 0 0 1l0 0c2 1 4 2 6 2 1 0 2 0 3 0 1 0 1 0 2 0 2 0 4 0 6 0 2 1 4 1 5 1 2 1 4 2 6 2 1 0 1 1 2 1 0 1 1 1 1 2 1 1 2 2 4 2 1 0 2 0 2 0 1 0 1 0 1-1 0 0 1 0 1 0 1 0 2 0 3 1 2 1 5 1 8 2 0 0 0 0 0 0 0-1 0-1 0-1 0 0 0 0 0 0 0-1-1-3-1-4 0 0 0-1 1-1 0 0 0 1 1 1 0 0 0-1 0-1l0-1c1-1 0-3 0-4-1-1-1-2-1-2 0-2-1-2-1-3-1-1-2-2-3-3 0-1-1-2-1-3 0-1-1-2-2-3 0-1-1-1-1-2 0-1-1-2-1-2 0-1-1-2-1-3-1-2-2-3-5-4 0 0 0 0 0 0-1-1-1-1 0-1l1 0c0 0 0-1 0-1-1-2-2-4-3-6 0 0-1 0-1 0 1-1 0-2 0-2 0-1 0-1-1-1 0 0 0 0 0-1 0-1-1-1-2-2l0-1c0-1 0-1 0-2-1 0-1 0-1-1 1 0 1 0 0 0 0-2 0-3 0-4-1-1-1-1-1-2-1-2-2-4-3-7 0 0 0-1 0-1-1-3-2-5-2-8 0 0 0 0 0-1 0-1-1-1-1-2-1 0-1-1-1-2 0 0 0-1-1-1 0-1 0-1 0-2 1 0 1-1 0-2 0 0 0 0 0-1 0-2-2-3-3-3-1 1-2 1-3 3-1 0-1 1-1 2-1 2-2 3-3 3 0 0-1 0-1 1-1 1-2 1-4 1-1 1-1 3-1 5 1 1 1 2 0 3 0 0 0 1 1 2 0 1 0 2 1 3 0 1 0 1 1 2 0 0 0 0 1-1 0 0 0-1 0-1-1-1-1-2-1-3 0 0-1 0-1-1 0 0 1 0 1 0 0-1 0-1 0-1l0-1c0-3 0-3 2-2 1 1 2 2 3 1 0 0 0-1 1-1 1 1 2 1 3 2 0 0 0 0 0 0 1 1 1 3 0 4 0 1 0 1 0 2 0 1 0 1 0 1-1 1-1 1-2 1 0 0 0 0 0 0 0 0 0 2 0 2 0 0 1 0 1 0 2 0 2 1 3 2 1 0 0 1 0 1 0 0-1 1-1 1-1 1-1 1 0 1 0 1 0 1-1 1 0 0 0 0 0 1l1 0 0 0c0 1 0 1-1 1 0-1-1-1-1-1-1 0-1 0-1 1 0 0 1 1 1 1 1 0 2 1 3 1 0 0 1-1 1 0 0 0 1 0 1 0 0 0 0 1 0 1 0 0 0 0 0 0-1 1-1 2 0 2 0 0 0 0 1 0 0 0 0 0 1 1-1 0-1 0-2 0-1 0-2 0-2-1-1-1-1-1-2-1-1 0-2-1-2-2 0 0-1-1-1-1-2 0-3-1-3-3 0-1-1-2-1-3 0 0-1-1-1-1-1 0-1 0 0-1l0 0c0 0-1 0-1 0 0 0-1 0-1 0 0 1 1 1 1 2 0 1 0 1 0 2 0 0 0 1-1 0 0 0-1 0-1 0-1 0-2 0-2-1-1 0-1 0-2-1 0 0-1-1-1-1-2 0-3 0-4 0-1 0-2-1-4-1 0 0-1 0-1 0-2 0-4 0-5 0-1 0-1 1-2 1-1-1-3 0-4 1-1 1-2 2-4 3 0 0-1 0-2 0 0 1-1 1-2 1 0 0 0 0 0 0-1 1-2 1-2 2-1 0-1 0-2 1 0 0 0 0-1 0-1 0-2 1-2 2-1 1-2 2-2 2-1 0-1 1-1 1 0 1-1 2-1 3-1 0-1 1-1 2 0 1 0 2-1 2 0 0 0 1 0 1-1 2-1 3-1 5 0 2 0 4 0 5 0 1 0 1 1 2 0 0 0 1 0 1 0 1 1 2 0 2 1 3 1 5 2 7 1 0 1 0 1 0-1 1 0 2 0 3 0 0 0 1 0 1 0 1 1 2 2 3 1 1 1 2 2 4 0 0 0 1 0 1 1 2 1 3 2 4 1 1 1 2 1 2 1 1 1 2 2 3 1 0 1 1 1 1 0 1 1 2 1 2 2 1 2 2 3 3 0 1 0 2 1 2 0 1 0 1 1 1 1 1 1 1 1 2-1 1 0 1 1 2 1 0 1 1 1 2 0 1 1 1 2 2 0 0 1 0 1 1 0 0 0 0 0 0-1 1 0 1 1 2 0 0 0 0 0 1 1 1 2 3 3 4 1 0 1 0 1 0 0 1 2 2 3 3 0 0 0 0 0 0-1 1-1 1 0 1l3 5c1 0 1 1 1 1 1 1 2 2 3 3 0 0 0 1 0 1 1 2 3 3 4 5 1 1 1 2 2 4 1 0 1 0 1 1 1 1 3 3 4 5 2 2 5 5 7 7 0 1 1 1 1 2 0 1 1 2 2 3 1 0 2 1 2 1 1 1 2 2 3 2 4 2 7 3 11 3 1 0 2 0 3 0 2 0 3 0 4-1 1 0 2 0 3 0 0 0 1 0 2 0l0-1c2 0 3-1 4-1 2-1 4-1 4-3 1 0 1-1 2-1 0-1 1-1 1-2 0 0 0 0 0-1 0 0 1-1 1-2 0 0 1-1 1-1 1 0 1-1 1-1 0-1 0-2 1-3 0-1 0-1 0-1-1-1-1-3-1-4 0 0 0-1 0-1l0-2c0-2 0-3 0-4 0 0 0 0 0 0 0-2-1-4-1-6 0-1 0-2 0-3z m-2-82l1 0 0 1-1-1z m1 5c0 0 0 1 0 2 0-1-1-2-1-2 0 0 0-1 0-1 0 0 1 0 1 1z m1 4c-1 1-2 1-3 1 0 0-1 0-1 0 0 0-1 0-1 0-1 0-2-1-2-1 0 0 1-1 1-1 0 0 1 0 1 0 1 0 1 0 1-1 0-1 1-1 1-1l2 1c0 1 1 2 1 2z m40-23l1 0z m-36 57c0 0-1 0-1 0 0 1-1 0-1 0-1 0-1 0-1 0 1-1 1-1 2-1 0 0 0 1 1 1z m15 22c0 0-1 1-2 1 0 0 0 0-1 1l0 0c-1-2-2-3-2-5-1 0-1-1-2-1-1-1-2-2-1-3 1 0 0-1 0-1-2 0-3-2-4-3-1-1-1-1-1-2-1-3-1-6-1-8 0-1 0-1-1-1 0-1 0-2 0-2 0-1 0-1 0-2-1 0-1 0-2 1 0 0 0 0 0 0-1 0-1-1-1-1l0-4c0-1-1-2 0-3 0-1-1-2-2-3 0-1-1-3-2-4-2-2-2-2 0-3 2 0 3 1 3 3 1 1 2 3 4 4 0 1 1 1 2 1 0 1-1 2-1 2 0 1 0 2 0 3 2 2 2 4 2 6 0 2 1 3 3 4 1 1 2 2 3 4 0 1 0 2 0 3 0 1 0 2 1 2 1 3 2 6 4 9 0 1 1 1 1 2z m-1 2l-1 0c0 0 0 0 0 0l0 0c0 0 0 0 1 0z m52-56c-1-2-2-3-3-4-2-2-3-5-4-7-1-1-2-2-3-3-3-1-6-4-9-5 0-1-1-1-1-2-1-2-3-3-5-3-2-1-3-1-3-3 0-1-1-1-1-1-1 1-2 0-3 0-2-2-4-2-6-2-2 0-4-1-5-1-3 0-7 0-9 1-2 0-3 1-4 1-1 0-2 0-3 0-3 2-6 4-9 6-4 3-7 5-8 9-2 4-2 8-2 12 1 3 0 5 1 7 0 1 1 2 2 2 1-1 2 0 3 0 0 1 1 1 1 2 0 1-1 1-2 1-1-1-2-2-3-1 0 0 0 0 0 1l2 8c0 1 0 1 0 2 1 1 1 2 1 4 1 1 1 2 1 3 1 4 3 9 4 13 1 1 1 2 2 3 2 3 4 7 5 11 0 1 0 1 1 2 3 5 5 11 8 16 1 1 1 2 2 4 1 4 4 7 7 10 2 2 4 4 6 6 3 0 5 1 7 1 4-1 8-3 11-6 0 0 1-2 1-2-1-4 2-5 4-6 0 0 1 0 1 0 2 0 5 1 7 2 3 0 7 2 10 2 2 1 5 1 7 1 2-1 2-2 1-4 0 0-1-1-2-2-2-3-6-4-7-7-2-2-5-3-7-3-2-1-4-1-5-2-3-1-5-2-8-2-1-1-3 0-4 1-2 0-2 0-3-2-1 0-1-1-1-1-1-3-3-5-4-8-2-3-4-6-6-10 0 0 0-1 0-1-1-2-1-3-2-4-2-2-3-4-3-6 0-2 0-2 1-2 5 1 10 2 14 4 3 1 6 2 9 3 2 1 4 2 6 2 1 0 1 1 2 1 2 2 5 2 8 3 3 1 5-1 3-4 0-2-1-4-2-7-1-1-2-2-3-2-2-1-4-2-6-3-2-1-5-1-6-3-3 0-6-2-9-2-4 1-8 0-12-2-1 0-2 0-3 0-3 0-5-1-7-2 0 0-1 0-1-1-1-2-2-4-3-6 0 0 0-1 0-2-2-2-2-5-2-7 0-2-1-3-1-5-2-4-2-9-2-13 0-1 0-2 0-3 1-3 2-3 5-2 3 0 6 1 8 2 4 2 8 3 11 5 7 3 13 6 19 10 3 1 6 3 10 4 0 0 1 0 1 0 0-1 0-1 0-1z m9-17c0 1 0 1-1 1-1 1-2 0-2-1 0-1 0-1-1-2 0-1 0-1 1-1 0 0 0-1 0-1 1 0 1 0 1 1z m1 6c0 0 0 1 0 2 0 1 1 2 1 3-1 1-1 1-2 1 0 0-1 0-1-1 0-1-1-3-1-5-1 0-1 0-1-1l1-2c0 0 1 0 1 0 1 1 2 2 2 3z m2 27l0 0 0 0z m18 39c1 0 1 1 0 1 0 1-1 1-1 0-1 0-1-1-1-1-1-2-2-4-3-7 0 0-1-1-1-1 0-4-1-7-3-10 0-1 0-2-1-3 0-2-1-3-1-5-1-4-4-8-5-12 0-1 0-3-1-4-1-2-2-4-2-6 0-1 0-2 0-2-1-2-2-4-2-6 0-1 0-2 0-2 0 0 0-1 0-1 1 0 1 0 2 0 0 1 0 1 0 2 1 2 1 4 2 6 0 2 1 3 2 5 1 4 2 7 3 11 1 4 4 8 4 13 0 0 1 0 1 0 1 1 1 2 1 3 0 2 0 4 2 6 0 0 0 0 0 1 0 1 0 2 1 3 0 1 1 2 1 4 0 2 1 3 2 5z m1 3c0 0-1 1-1 1-1 0-1 0-1-1 0 0 0 0 1-1 0 1 1 1 1 1z m5 13c0 0-1 1-1 1-1 0-2-1-2-2 0 0 0 0 1-1 1 0 2 1 2 2z m112 26c0-3 0-7-3-10 0 0 0-1-1-1-1-4-5-7-6-11 0-1-1-1-1-1-3-3-4-6-4-10 0-1-1-1-1-2-2-1-3-3-4-5 0 0 0-1-1-2-1-2-3-4-4-6-1-1-1-3-2-4 0-2-1-3-2-4 0-1 0-1 0-2 0-1-1-2-2-3-1-1-3-2-2-4 0 0 0-1-1-1-1-1-3-3-2-5 1 0 0-1 0-2-1 0-2 0-2-1-1 0-1-1-1-1 0-2-1-3-1-4-1-1-2-2-2-4 0-1-1-3-1-4 0-1 0-1-1-1-2-1-2-4-3-6-1-3-2-5-3-8 0-1 0-2-1-2 0-3 0-5-1-7-1-1-2-3-3-5-1-1-2-2-3-2-3 1-6 1-9 1-2 1-3 2-4 4 0 3-1 6 1 9 1 1 1 2 0 3-1 1 0 2 1 3 0 1 0 1 0 2 0 3 2 5 5 6 1 0 1-1 1-2-1-1-2-2-2-4 0-2 0-3-1-5 0 0 0-1 0-2 0 0 0 0 0-1 1 0 1 1 1 1 1 1 1 2 2 3 1 2 1 4 2 5 1 2 2 4 3 6 1 4 2 7 4 10 1 2 1 4 3 6 1 1 1 3 1 5 1 2 2 4 3 6 1 1 1 2 2 3 1 0 1 1 1 2 0 2 1 2 3 3 1 0 1 0 1 1-1 1 0 1 0 2 1 2 2 3 2 5l0 0c0 1 3 0 2 2-1 1 1 2 2 3 0 0 0 1 0 1 0 1 0 2-1 2 0 0-2 0-2-1 0-1-1-2-2-3-1-1-1-2-2-3-1-1-2-2-3-3 0-1 0-1 0-2 0-1-2-1-2-2 0-2-1-1-2-2-1 0-1-1-1-1-2-2-3-3-3-5-1-1-1-1-1-2-1 0-1-1-2-1-1 0-1 1 0 2 0 0-1 0-1 0-1 0-2 0-3-1-2-2-3-4-5-6-2-2-3-4-6-5 0 0-1-1-1-1-3-3-7-3-11-3-3 0-5 2-6 3-1 1-2 2-3 2-2 1-3 3-3 4 0 3-1 7-1 10-1 2-1 4-2 6-1 4-2 9-3 14 0 1-1 1-1 2 0 1-1 0-2 0 0-2-1-4-2-6 0-1 0-1 0-2-3-5-4-10-5-15 0-1 0-1 0-2 0-3-1-6-3-9l-3-4-1-2c0-2 0-3-1-5 0 0 0-1 0-2 0-2 0-4-3-5-1 0-1-1-1-2 1-1 1-1 1-2 0-1 0-2-1-2-1-2-1-3-1-5 0-3-1-5-2-7-1-2-2-3-1-5 1-1 0-3-1-5-1-2-2-4-1-6 0-2 0-4 0-5 1-2 0-2-1-3-3 0-6-1-8 1-2 1-4 1-5 2-1 0-2 1-3 1-1 1-2 3-2 4 0 2 0 4-1 6 1 5 1 10 2 15 2 4 2 8 4 12 0 3 2 5 2 8 1 2 3 5 3 8 1 2 2 4 3 7 0 1 1 2 1 4 0 1 0 2 1 4 1 1 1 2 1 3 0 2 1 4 2 5 1 1 1 2 1 3 0 0 0 1 0 1 2 5 3 9 5 13 0 1 1 2 0 2 0 3 1 5 2 8 2 3 3 7 5 11 1 3 1 6 3 10 1 3 0 6-2 9-1 1-1 2-2 4 0 1 0 2 2 2 1 0 1 1 2 1 2-1 4-1 7 0 0 0 1-1 1-1 3-1 5-3 7-4 2-1 4-2 5-3 1-1 1-2 1-3 1-2 2-4 2-6 0-2 0-3 0-5 0-1 0-2 1-3 0-1 1-1 1-2 1-3 2-6 3-9 1-3 2-5 3-7 0 0 1-1 1-1-2-1-1-3-2-5-1 0-1-1 0-1 1-1 2-2 2-4 1 0 1-1 0-2-1 0 0-1 0-1 2-3 2-5 2-8 0-1 1-2 1-4 0-1 1-1 3 0 0 0 0 0 0 1 2 0 2 2 4 2 4 2 6 5 9 8 2 2 4 4 6 5 1 2 3 3 4 4 0 2 1 3 4 3 1 0 1 1 1 2 0 0 0 1 0 1 0 1 1 1 2 1 1-1 2-1 3 0 1 1 1 2-1 2-1 1-1 1 0 2 0 0 1 1 1 2l1 0c0 0 1-1 1-1-1 0-1-1-1-1 0-1 0-1 0-1 0 0 1 0 1 0 0 1 1 1 1 1 0 1 1 2 1 2 1 1 1 1 2 2-1 0-2 1-2 1 0 0 0 1 0 1 0 0 0 0 1 0 0 0 1 0 1 0 1 0 2 0 3 1 1 0 1 1 1 1 0 2 2 3 3 5 1 0 2 0 2 2-1 0 0 1 0 2 0 0 1 1 0 1-1 1 0 2 1 3 1 1 2 3 4 5 1 1 1 3 2 4 1 1 2 2 4 1 2-1 4-2 6-3 2 0 3 0 4 1 1 1 3 0 3-1 1-1 1-2 2-3 0 0 1 0 1-1z"/>
<glyph glyph-name="arrow-down-plus" unicode="&#107;" d="M274 42l0 470-18 0 0-472-186 186-12-13 207-208 190 208-14 13z"/>
<glyph glyph-name="facebook-f" unicode="&#108;" d="M384 509l0-76-45 0c-17 0-28-3-33-10-6-7-9-17-9-31l0-54 84 0-11-85-73 0 0-216-87 0 0 216-73 0 0 85 73 0 0 62c0 36 10 63 29 83 20 19 47 29 80 29 28 0 49-1 65-3z"/>
<glyph glyph-name="logo-digio" unicode="&#109;" d="M115 377c-2 0-5-1-6-2-2-2-3-4-3-7l0-50c-18 18-44 24-68 14-23-10-38-32-38-57 0-26 15-48 38-58 24-9 50-4 68 14l0-9c0-5 4-9 9-9 5 0 9 4 9 9l0 146c0 3-1 5-3 7-1 1-4 2-6 2z m-53-147c-25 0-44 20-44 45 0 24 19 44 44 44 24 0 44-20 44-44 0-26-20-45-44-45z m111 71c2 0 4-1 6-3 2-2 2-4 2-6l0-71c0-5-4-9-8-9-5 0-9 4-9 9l0 71c0 2 1 4 2 6 2 2 4 3 7 3z m184-12l0 0c2 0 4 0 6-2 1-2 2-4 2-6l0-66c0-4-1-7-4-8-3-2-6-2-9 0-2 1-4 4-4 8l0 66c0 2 1 4 3 6 1 2 3 2 6 2z m96 34c-32 0-58-26-58-59 0-32 26-58 58-58 33 0 59 26 59 58 0 16-6 31-17 42-11 11-26 17-42 17z m0-100c-23 0-41 18-41 41 0 24 18 42 41 42 23 0 42-18 42-42 0-23-19-41-42-41z m-137 92c0 2-1 4-3 5-1 2-3 3-5 3l-50 0c-26 0-48-16-56-40-8-24 1-51 21-66 21-15 48-15 69 0 9-14 10-33 0-47-9-14-26-21-43-18-17 4-30 17-33 34-1 5-5 7-9 7-4-1-8-5-7-9 5-29 30-50 59-49 31 1 56 25 57 56 0 13-4 27-12 38 18 23 15 56-6 77l10 0c2 0 4 1 5 3 2 1 3 3 3 6z m-17-51c0-23-18-41-42-41-23 0-41 18-41 41 0 24 18 42 41 42 24 0 42-18 42-42z m71 51c0-4-2-7-4-9-2-2-6-4-9-4-7 0-12 6-12 13 0 7 5 12 12 12 7 0 13-5 13-12z m-185 12c0-7-6-13-13-13-7 0-13 6-13 13 0 7 6 13 13 13 7 0 13-6 13-13z"/>
<glyph glyph-name="no-tax" unicode="&#110;" d="M507 502c-7 7-18 7-25 0l-74-73c-31 50-86 83-150 83-98 0-177-79-177-176l0-160c0-21 4-41 11-60l-87-86c-7-7-7-18 0-25 7-7 18-7 25 0l78 78c32-50 87-83 150-83 98 0 178 79 178 176l0 160c0 21-5 41-12 60l83 81c7 7 7 18 0 25z m-384-326l0 160c0 74 61 134 135 134 52 0 97-29 119-71l-251-250c-2 9-3 18-3 27z m271 160l0-160c0-74-61-134-136-134-52 0-96 29-119 71l252 250c2-9 3-18 3-27z"/>
<glyph glyph-name="small-digio-app" unicode="&#111;" d="M418 61c-1 0-2 1-2 2l0 4c0 1 1 1 2 1 1 0 2 0 2-1l0-4c0-1-1-2-2-2z m0 16c-1 0-2 1-2 2l0 4c0 1 1 2 2 2 1 0 2-1 2-2l0-4c0-1-1-2-2-2z m0 17c-1 0-2 1-2 2l0 4c0 1 1 2 2 2 1 0 2-1 2-2l0-4c0-1-1-2-2-2z m0 17c-1 0-2 1-2 2l0 3c0 2 1 2 2 2 1 0 2 0 2-2l0-3c0-1-1-2-2-2z m0 16c-1 0-2 1-2 2l0 4c0 1 1 2 2 2 1 0 2-1 2-2l0-4c0-1-1-2-2-2z m0 17c-1 0-2 1-2 2l0 4c0 1 1 2 2 2 1 0 2-1 2-2l0-4c0-1-1-2-2-2z m0 17c-1 0-2 0-2 1l0 4c0 1 1 2 2 2 1 0 2-1 2-2l0-4c0-1-1-1-2-1z m0 16c-1 0-2 1-2 2l0 4c0 1 1 2 2 2 1 0 2-1 2-2l0-4c0-1-1-2-2-2z m0 17c-1 0-2 1-2 2l0 4c0 1 1 2 2 2 1 0 2-1 2-2l0-4c0-1-1-2-2-2z m0 16c-1 0-2 1-2 2l0 4c0 1 1 2 2 2 1 0 2-1 2-2l0-4c0-1-1-2-2-2z m0 17c-1 0-2 1-2 2l0 4c0 1 1 2 2 2 1 0 2-1 2-2l0-4c0-1-1-2-2-2z m0 17c-1 0-2 1-2 2l0 3c0 2 1 2 2 2 1 0 2 0 2-2l0-3c0-1-1-2-2-2z m0 16c-1 0-2 1-2 2l0 4c0 1 1 2 2 2 1 0 2-1 2-2l0-4c0-1-1-2-2-2z m0 17c-1 0-2 1-2 2l0 4c0 1 1 2 2 2 1 0 2-1 2-2l0-4c0-1-1-2-2-2z m0 17c-1 0-2 0-2 1l0 4c0 1 1 2 2 2 1 0 2-1 2-2l0-4c0-1-1-1-2-1z m0 16c-1 0-2 1-2 2l0 4c0 1 1 2 2 2 1 0 2-1 2-2l0-4c0-1-1-2-2-2z m0 17c-1 0-2 1-2 2l0 4c0 1 1 1 2 1 1 0 2 0 2-1l0-4c0-1-1-2-2-2z m0 16c-1 0-2 1-2 2l0 4c0 1 1 2 2 2 1 0 2-1 2-2l0-4c0-1-1-2-2-2z m0 17c-1 0-2 1-2 2l0 4c0 1 1 2 2 2 1 0 2-1 2-2l0-4c0-1-1-2-2-2z m0 17c-1 0-2 1-2 2l0 3c0 1 1 2 2 2 1 0 2-1 2-2l0-3c0-1-1-2-2-2z m0 16c-1 0-2 1-2 2l0 4c0 1 1 2 2 2 1 0 2-1 2-2l0-4c0-1-1-2-2-2z m0 17c-1 0-2 1-2 2l0 4c0 1 1 2 2 2 1 0 2-1 2-2l0-4c0-1-1-2-2-2z m0 17c-1 0-2 0-2 1l0 4c0 1 1 2 2 2 1 0 2-1 2-2l0-4c0-1-1-1-2-1z m0 16c-1 0-2 1-2 2l0 4c0 1 1 2 2 2 1 0 2-1 2-2l0-4c0-1-1-2-2-2z m0 17c-1 0-2 1-2 2l0 4c0 1 1 1 2 1 1 0 2 0 2-1l0-4c0-1-1-2-2-2z m0 16c-1 0-2 1-2 2 0 2 0 3 0 4 0 0 0 1 0 1 1 1 1 1 2 1 1 0 2-1 2-2 0-1 0-2 0-4 0 0 0-1 0-1-1 0-1-1-2-1z m-3 17c-1-1-1-1-1-1-1 0-2 1-2 1-1 1-1 2-2 3-1 1 0 2 0 3 1 1 3 0 3-1 1-1 2-2 2-3 0 0 0 0 0 0l0 0c1 0 1-1 1-1 0-1-1-1-1-1z m-11-460c-1 0-1 0-1 0-1 0-2 0-2 1 0 0 0 1 0 1 0 1 0 1 1 2 1 0 2 1 3 2 0 0 2 0 2-1 1 0 1-1 1-1 0-1-1-1-1-1-1-1-2-2-3-3z m-2 471c0 0-1 0-1 0-1 1-2 1-3 2-1 0-2 1-1 2 0 1 1 2 2 1 2 0 3-1 4-2 1 0 1-1 1-1 0-1 0-1 0-1-1-1-1-1-2-1z m-10-479c0-14-11-25-24-25l-251 0c-14 0-25 11-25 25l0 440c0 14 11 25 25 25l5 0c0 0 0 1 0 1 0 1 1 3 2 4 0 1 2 1 2 0 1 0 1-1 1-1 0-1 0-1 0-1 0-1-1-2-1-3l242 0c13 0 24-11 24-25l0-434c0 0 1 0 1 0 0-1-1-1-1-1z m-10 440c0 8-7 15-14 15l-251 0c-8 0-15-7-15-15l0-29 280 0z m0-37l-280 0 0-403c0-8 7-15 15-15l251 0c7 0 14 7 14 15z m-52-262l-174 0c-3 0-5 2-5 5 0 4 2 6 5 6l174 0c3 0 5-2 5-6 0-3-2-5-5-5z m-17 95c-11 0-20 9-20 20 0 11 9 19 20 19 12 0 21-8 21-19 0-11-9-20-21-20z m0 34c-8 0-14-7-14-14 0-8 6-14 14-14 8 0 15 6 15 14 0 7-7 14-15 14z m-30-9l0-22c0-2-2-3-3-3-2 0-3 1-3 3l0 22c0 2 1 3 3 3 1 0 3-1 3-3z m-3 7c-2 0-4 2-4 5 0 2 2 4 4 4 2 0 4-2 4-4 0-3-2-5-4-5z m-14-12c0-5-2-9-5-12 3-4 5-8 5-13-1-11-9-19-20-19-10-1-19 7-21 16 0 2 2 4 3 4 2 0 3-1 3-3 1-7 8-12 15-12 7 1 13 6 14 13 0 4-1 7-3 10-3-3-7-4-12-4-11 0-20 9-20 20 0 11 9 19 20 19 1 0 1 0 1 0 0 0 0 0 0 0l17 0c1 0 3-1 3-2 0-2-2-3-3-3l-3 0c3-4 6-9 6-14z m-21 14c-8 0-14-7-14-14 0-8 6-14 14-14 8 0 15 6 15 14 0 7-7 14-15 14z m-30-9l0-22c0-2-1-3-3-3-2 0-3 1-3 3l0 22c0 2 1 3 3 3 2 0 3-1 3-3z m-3 7c-2 0-4 2-4 5 0 2 2 4 4 4 2 0 4-2 4-4 0-3-2-5-4-5z m-19-32c-1 0-3 1-3 3l0 3c-3-4-8-6-14-6-11 0-20 9-20 20 0 11 9 19 20 19 6 0 11-2 14-5l0 16c0 1 2 2 3 2 2 0 3-1 3-2l0-47c0-2-1-3-3-3z m-17 34c-8 0-14-7-14-14 0-8 6-14 14-14 8 0 14 6 14 14 0 7-6 14-14 14z m2-152l122 0c2 0 4-3 4-6 0-3-2-6-4-6l-122 0c-3 0-5 3-5 6 0 3 2 6 5 6z m64-60c15 0 26-12 26-27 0-14-11-26-26-26-14 0-26 12-26 26 0 15 12 27 26 27z m0-42c9 0 16 7 16 15 0 9-7 16-16 16-9 0-16-7-16-16 0-8 7-15 16-15z m144 467l-4 0c-1 0-2 1-2 2 0 1 1 2 2 2l4 0c1 0 1 0 2-1 0 0 0 0 0-1 0-1-1-2-2-2z m-16 0l-4 0c-1 0-2 1-2 2 0 1 1 2 2 2l4 0c1 0 1-1 1-2 0-1 0-2-1-2z m-17 0l-4 0c-1 0-2 1-2 2 0 1 1 2 2 2l4 0c1 0 2-1 2-2 0-1-1-2-2-2z m-17 0l-4 0c-1 0-2 1-2 2 0 1 1 2 2 2l4 0c1 0 2-1 2-2 0-1-1-2-2-2z m-17 0l-3 0c-1 0-2 1-2 2 0 1 1 2 2 2l3 0c2 0 2-1 2-2 0-1 0-2-2-2z m-16 0l-4 0c-1 0-2 1-2 2 0 1 1 2 2 2l4 0c1 0 2-1 2-2 0-1-1-2-2-2z m-17 0l-4 0c-1 0-2 1-2 2 0 1 1 2 2 2l4 0c1 0 2-1 2-2 0-1-1-2-2-2z m-17 0l-3 0c-1 0-2 1-2 2 0 1 1 2 2 2l3 0c2 0 2-1 2-2 0-1 0-2-2-2z m-16 0l-4 0c-1 0-2 1-2 2 0 1 1 2 2 2l4 0c1 0 2-1 2-2 0-1-1-2-2-2z m-17 0l-4 0c-1 0-2 1-2 2 0 1 1 2 2 2l4 0c1 0 2-1 2-2 0-1-1-2-2-2z m-17 0l-3 0c-1 0-2 1-2 2 0 1 1 2 2 2l3 0c2 0 2-1 2-2 0-1 0-2-2-2z m-16 0l-4 0c-1 0-2 1-2 2 0 1 1 2 2 2l4 0c1 0 2-1 2-2 0-1-1-2-2-2z m-17 0l-4 0c-1 0-2 1-2 2 0 1 1 2 2 2l4 0c1 0 2-1 2-2 0-1-1-2-2-2z m-17 0l-3 0c-1 0-2 1-2 2 0 1 1 2 2 2l3 0c2 0 2-1 2-2 0-1 0-2-2-2z m-16 0c0 0 0 0 0 0-1 0-3 0-4 0 0 0 0 0 0 0-1 0-2 1-2 2 0 1 1 2 2 2 1 0 2 0 4 0 1 0 2-1 2-2 0-1-1-2-2-2z m-15-4c0 0 0 0 0 0-1-1-2-1-3-2 0 0-1-1-1-1-1 0-1 1-2 1 0 1 0 1 0 2 0 0 0 1 1 1 1 1 2 2 3 2 1 1 2 0 3 0 0-1 0-1 0-1 0-1 0-2-1-2z m276-453c0 1 2 1 3 1 0 0 1-2 1-3-1-1-2-2-2-3-1-1-1-1-2-1 0 0-1 0-1 0 0 0-1 1-1 2 0 0 0 0 0 1 1 1 2 2 2 3z"/>
<glyph glyph-name="small-digio-card" unicode="&#112;" d="M487 67l-415 0c-14 0-26 11-26 25l0 9c0 0 0 1 0 1l-46 243c-1 6 1 12 4 18 4 5 10 9 16 10l398 72c7 1 13-1 19-4 5-4 9-10 10-16l10-55 30 0c14 0 25-11 25-25l0-253c0-14-11-25-25-25z m-50 356c-1 4-3 7-6 9-3 2-7 3-11 3l-398-72c-4-1-7-3-9-6-2-3-3-7-2-11l35-189 0 188c0 14 12 25 26 25l375 0z m64-78c0 8-6 14-14 14l-415 0c-9 0-15-6-15-14l0-253c0-8 6-15 15-15l415 0c8 0 14 7 14 15z m-100-187l-292 0c-3 0-5 2-5 5 0 3 2 5 5 5l292 0c3 0 5-2 5-5 0-3-2-5-5-5z m-67 90c-11 0-19 9-19 19 0 10 8 18 19 18 10 0 18-8 18-18 0-10-8-19-18-19z m0 32c-8 0-14-6-14-13 0-8 6-13 14-13 7 0 13 5 13 13 0 7-6 13-13 13z m-29-8l0-21c0-1-1-3-2-3-2 0-3 2-3 3l0 21c0 1 1 3 3 3 1 0 2-2 2-3z m-2 7c-3 0-4 1-4 3 0 3 1 4 4 4 2 0 4-1 4-4 0-2-2-3-4-3z m-18-23c3-4 5-8 4-12 0-10-8-18-18-18-10 0-17 6-19 15 0 2 1 3 3 3 1 0 2-1 2-2 1-6 7-11 14-11 7 1 12 6 13 12 0 3-1 6-2 9-4-2-7-4-11-4-11 0-19 9-19 19 0 10 8 18 19 18 0 0 0 0 0 0 0 0 0 0 0 0l16 0c1 0 2-1 2-3 0-1-1-2-2-2l-3 0c3-3 5-8 5-13 0-4-1-8-4-11z m-14 24c-8 0-14-6-14-13 0-8 6-13 14-13 7 0 13 5 13 13 0 7-6 13-13 13z m-29-8l0-21c0-1-1-3-2-3-2 0-3 2-3 3l0 21c0 1 1 3 3 3 1 0 2-2 2-3z m-2 7c-3 0-4 1-4 3 0 3 1 4 4 4 2 0 3-1 3-4 0-2-1-3-3-3z m-18-31c-1 0-3 2-3 3l0 3c-3-4-8-6-13-6-10 0-19 9-19 19 0 10 9 18 19 18 5 0 10-2 13-5l0 15c0 1 2 2 3 2 2 0 3-1 3-2l0-44c0-1-1-3-3-3z m-16 32c-7 0-13-6-13-13 0-8 6-13 13-13 7 0 13 5 13 13 0 7-6 13-13 13z m-97-149l136 0c3 0 5-2 5-5 0-3-2-5-5-5l-136 0c-3 0-5 2-5 5 0 3 2 5 5 5z"/>
<glyph glyph-name="small-digio-download" unicode="&#113;" d="M389 315c0-17-14-31-32-31-19 0-33 14-33 31 0 18 14 32 33 32 18 0 32-14 32-32z m-56 0c0-12 11-22 24-22 13 0 23 10 23 22 0 13-10 23-23 23-13 0-24-10-24-23z m-171 53c3 0 5-2 5-5l0-75c0-2-2-4-5-4-3 0-5 2-5 4l0 5c-6-6-14-9-23-9-18 0-33 14-33 31 0 18 15 32 33 32 9 0 17-4 23-9l0 25c0 3 2 5 5 5z m-28-30c-13 0-24-10-24-23 0-12 11-22 24-22 12 0 23 9 23 22 0 13-10 23-23 23z m286-232l-103 0 0 16 103 0c34 0 62 28 62 62l0 250c0 35-28 63-62 63l-328 0c-34 0-62-28-62-63l0-250c0-34 28-62 62-62l103 0 0-16-103 0c-43 0-78 35-78 78l0 250c0 43 35 78 78 78l328 0c43 0 78-35 78-78l0-250c0-43-35-78-78-78z m-232 182l0 36c0 3 2 5 4 5 3 0 5-2 5-5l0-36c0-2-2-4-5-4-2 0-4 2-4 4z m-3 55c0 3 3 6 7 6 4 0 7-3 7-6 0-4-3-7-7-7-4 0-7 3-7 7z m94-28c0-7-2-14-6-19 4-6 7-13 6-20 0-17-14-30-32-31-16 0-30 11-33 27 0 2 2 5 5 5 2 0 4-2 4-4 2-11 13-19 25-19 11 1 21 10 22 21 0 5-1 11-4 15-6-4-12-6-20-6-18 0-32 14-32 31 0 18 14 32 32 32 1 0 1 0 1 0 0 0 0 0 0 0l28 0c2 0 4-2 4-4 0-3-2-5-4-5l-5 0c6-6 9-14 9-23z m-33 23c-12 0-23-10-23-23 0-12 11-22 23-22 13 0 24 10 24 22 0 13-11 23-24 23z m61-14l0-36c0-2-2-4-5-4-2 0-4 2-4 4l0 36c0 3 2 5 4 5 3 0 5-2 5-5z m-12 19c0 3 4 6 7 6 4 0 7-3 7-6 0-4-3-7-7-7-3 0-7 3-7 7z m-84-283l40-41 0 134c0 3 2 6 5 6 3 0 5-3 5-6l0-134 40 41c2 2 5 2 7 0 3-2 3-6 0-8l-48-50c-2-3-6-3-8 0l-48 50c-3 2-3 6 0 8 2 2 5 2 7 0z"/>
<glyph glyph-name="arrow-left-circle" unicode="&#114;" d="M256 495c-132 0-239-107-239-239 0-132 107-239 239-239 132 0 239 107 239 239 0 132-107 239-239 239z m0 17c141 0 256-115 256-256 0-141-115-256-256-256-141 0-256 115-256 256 0 141 115 256 256 256z m-29-198l11-10-45-45 154 0 0-14-154 0 45-45-11-10-62 62z"/>
<glyph glyph-name="arrow-right-circle" unicode="&#115;" d="M256 495c132 0 239-107 239-239 0-132-107-239-239-239-132 0-239 107-239 239 0 132 107 239 239 239z m0 17c-141 0-256-115-256-256 0-141 115-256 256-256 141 0 256 115 256 256 0 141-115 256-256 256z m29-198l-11-10 45-45-154 0 0-14 154 0-45-45 11-10 62 62z"/>
<glyph glyph-name="arrow-top-circle" unicode="&#116;" d="M495 256c0 132-107 239-239 239-132 0-239-107-239-239 0-132 107-239 239-239 132 0 239 107 239 239z m17 0c0-141-115-256-256-256-141 0-256 115-256 256 0 141 115 256 256 256 141 0 256-115 256-256z m-198 29l-10-11-45 45 0-154-14 0 0 154-45-45-10 11 62 62z"/>
<glyph glyph-name="arrow-bottom-circle" unicode="&#117;" d="M495 256c0-132-107-239-239-239-132 0-239 107-239 239 0 132 107 239 239 239 132 0 239-107 239-239z m17 0c0 141-115 256-256 256-141 0-256-115-256-256 0-141 115-256 256-256 141 0 256 115 256 256z m-198-29l-10 11-45-45 0 154-14 0 0-154-45 45-10-11 62-62z"/>
<glyph glyph-name="medium" unicode="&#118;" d="M259 217c0-2 0-2 1-3l7-7 0 0-30 0 0 13c-3-9-11-14-20-14-15 0-26 12-26 34 0 21 12 35 28 35 8 0 15-4 18-11l0 28c0 1-1 2-2 3l-6 6 0 1 30 3z m-22 4l0 42c-2 2-6 4-9 4-7 0-14-7-14-26 0-19 6-25 13-25 4 0 8 2 10 5z m41-14l0 56c1 1 0 3-1 3l-6 7 0 1 29 0 0-57c0-2 0-3 2-4l6-6 0 0z m-1 87c0 7 6 12 12 12 7 0 12-5 12-12 0-6-5-12-12-12-6 0-12 6-12 12z m104-77c0-2 0-2 1-3l7-7 0 0-30 0 0 14c-3-9-11-15-21-15-13 0-20 9-20 28 0 9 0 19 0 29 0 2 0 3-1 4l-7 6 0 1 30 0c0-1 0-35 0-37 0-12 2-20 9-20 4 0 8 2 10 6l0 40c0 1-1 3-1 3l-7 7 0 1 30 0z m101-10c0 2 0 30 0 36 0 12-1 20-10 20-4 0-8-2-10-5 0-4 1-8 1-12 0-8-1-19-1-30 0-1 1-2 2-3l6-6 0 0-30 0c0 2 1 30 1 36 0 12-2 20-11 20-4 0-7-2-10-6l0-41c0-1 0-2 2-3l6-6 0 0-29 0 0 56c0 1-1 2-2 3l-6 7 0 1 29 0 0-15c3 10 12 16 22 16 10 0 16-6 19-16 3 9 13 16 23 16 13 0 20-10 20-29 0-9 0-19 0-29 0-2 0-3 1-4l7-6 0 0z m-374 9l9-9 0 0-45 0 0 0 9 9c1 0 1 2 1 3l0 54c0 2 0 5 1 8l-31-75 0 0-31 69c-1 2-1 2-2 3l0-45c0-3 0-6 2-9l12-17 0 0-33 0 0 0 13 17c1 3 1 6 1 9l0 50c0 2 0 5-2 7l-9 11 0 1 32 0 27-59 23 59 32 0 0-1-9-9c-1-1-2-3-1-4l0-69c-1-1 0-3 1-3z m35 27l0-1c0-17 9-24 19-24 9 0 17 5 21 13l0 0c-4-17-14-25-30-25-17 0-33 10-33 34 0 25 16 35 34 35 14 0 29-7 29-29 0 0 0-2 0-3z m0 3l20 0c0 2 0 3 0 4 0 17-4 22-9 22-7 0-11-7-11-26z"/>
<glyph glyph-name="response" unicode="&#119;" d="M438 108c48 46 69 105 69 168 0 130-109 236-249 236-140 0-253-106-253-236 0-130 113-236 253-236 25 0 50 4 74 11 7-7 15-13 23-18 33-22 68-33 105-33 7 0 13 4 15 9 3 5 3 12-1 16-15 22-26 43-32 65-2 6-3 13-4 19z m-96-33l-3 7-9-3c-23-7-48-11-72-11-124 0-225 94-225 208 0 115 101 208 225 208 124 0 220-93 220-208 0-57-19-109-62-149l-7-5 0-8c0-2 0-5 1-9 1-8 2-16 5-24 5-17 12-35 22-52-23 4-46 12-67 27-8 5-22 12-29 18z"/>
<glyph glyph-name="clap" unicode="&#120;" d="M458 231l-60 104c-4 7-11 12-18 13-6 1-11 0-15-4-10-7-12-19-5-33l20-42 22-40c37-66 25-129-34-188-5-4-9-8-13-12 23 2 46 11 69 34 62 62 58 128 34 168z m-102-179c54 54 65 110 32 170l-55 96c-4 7-11 11-19 13-5 1-10-1-14-4-10-8-12-19-5-33l28-59c1-4 0-8-3-10-3-2-8-2-11 1l-144 144c-9 8-22 8-30-1-9-8-9-21-1-30l86-85c3-3 3-8 0-11-3-4-8-4-12-1l-85 86-25 24c-8 8-22 8-30 0-9-8-9-22 0-30l24-24 86-86c2-2 3-6 2-9-2-3-5-5-8-5-2 0-4 1-6 2l-86 86c-8 8-22 8-30 0-9-8-9-22 0-30l36-37 54-53c2-3 3-6 2-9-2-3-5-5-8-5-2 0-4 1-6 2l-54 54c-4 4-9 6-15 6-6 0-11-2-15-6-4-4-7-9-7-15 0-6 3-11 7-15l104-104c57-57 144-86 208-22z m-160 310l92-92-8 17c-9 18-7 34 4 47l-54 53c-9 9-22 9-31 0-4-4-6-9-6-15 0-4 1-7 3-10z m240-310c-26-26-56-39-87-39-6 0-12 1-17 1-19-9-39-14-60-14-49 0-99 26-136 63l-104 103c-7 7-11 17-11 27 0 18 13 34 31 37l-14 14c-15 15-15 39 0 53 6 6 13 10 20 11l-2 2c-15 15-15 39 0 54 14 14 39 14 54 0l2-3c2 14 12 25 26 30 13 4 28 0 38-10l2-1c1 7 4 13 10 19 15 14 39 14 53 0l55-55c7 3 14 4 21 3 9-2 17-6 23-13 2 9 7 17 15 23 8 6 18 9 27 7 12-2 23-9 30-21l60-103c27-46 33-120-36-188z m-233 452l-31-14 39-46-8 60z m138-14l-31 14-7-60z m-84-31l-17 53 33 0z"/>
<glyph glyph-name="email" unicode="&#121;" d="M349 256l163 142 0-284z m-326 158l466 0-233-202z m-23-300l0 284 163-142z m256 62l72 62 161-140-466 0 161 140z"/>
<glyph glyph-name="question" unicode="&#122;" d="M256 512c-141 0-256-115-256-256 0-141 115-256 256-256 141 0 256 115 256 256 0 141-115 256-256 256z m26-435l-52 0 0 51 52 0z m53 197l-23-23c-20-18-30-33-30-72l-52 0 0 13c0 28 11 54 31 72l31 33c10 8 15 20 15 36 0 28-23 51-51 51-28 0-51-23-51-51l-51 0c0 56 46 102 102 102 56 0 102-46 102-102 0-23-10-44-23-59z"/>
<glyph glyph-name="mobilia" unicode="&#65;" d="M405 39l-30 0 11-28c2-4 0-9-4-10-1-1-2-1-3-1-3 0-5 2-7 5l-14 34-215 0-14-34c-1-3-4-5-7-5-1 0-2 0-3 1-4 1-5 6-4 10l12 28-30 0c-17 0-31 14-31 32l0 103c0 0 0 0 0 0l0 105c0 17 14 32 31 32l57 0 0 24c0 4 3 7 7 7l43 0 0 71-59 0c-2 0-5 1-6 3-2 2-2 5-1 7l26 84c1 3 4 5 7 5l81 0c4 0 7-2 8-5l26-84c0-2 0-5-2-7-1-2-3-3-6-3l-20 0 0-19c0-4-3-7-7-7-4 0-8 3-8 7l0 19-24 0 0-71 43 0c4 0 8-3 8-7l0-24 135 0c17 0 31-15 31-32l0-103c0 0 0 0 0 0l0-105c0-18-14-32-31-32z m-324 32c0-9 7-17 16-17l41 0c0 0 0 0 0 0l226 0c0 0 0 0 0 0l41 0c8 0 16 8 16 17l0 95-340 0z m187 358l-21 67-70 0-22-67z m-13-102l-86 0 0-16 86 0z m166-48c0 9-8 16-16 16l-308 0c-9 0-16-7-16-16l0-95 340 0z m-153-43l-35 0c-4 0-8 4-8 8 0 4 4 8 8 8l35 0c5 0 8-4 8-8 0-4-3-8-8-8z m-35-112l35 0c5 0 8-3 8-8 0-4-3-7-8-7l-35 0c-4 0-8 3-8 7 0 5 4 8 8 8z"/>
<glyph glyph-name="moda" unicode="&#66;" d="M377 174c-35 59-47 91-47 114 0 1 0 1 0 1 0 0 0 1-1 1 1 18 8 30 16 45 43 75 18 120 17 122-1 2-3 3-5 5-6 2-11 4-17 5l0 33c0 7-5 12-12 12-6 0-12-5-12-12l0-32c-26-3-48-19-60-29-11 10-31 25-57 29l0 32c0 7-5 12-11 12-7 0-12-5-12-12l0-32c-7-1-14-3-21-6-2-2-4-3-5-5-1-2-26-47 17-122 8-15 16-28 16-45 0-1-1-1-1-1 0 0 1 0 1 0-1-24-13-56-48-115-28-48-40-99-36-163 0-6 5-11 12-11l290 0c7 0 12 5 12 11 4 64-8 115-36 163z m-208 268c6 2 12 3 18 3 33 0 60-30 60-31 5-5 13-5 18 0 0 1 27 31 60 31 6 0 12-1 18-3 3-10 11-43-18-95-9-16-16-30-19-46l-100 0c-3 16-10 30-19 46-29 52-22 85-18 95z m221-418l-268 0c-2 70 18 112 33 138 33 54 47 89 50 115l102 0c3-26 17-61 50-115 15-26 35-68 33-138z"/>
<glyph glyph-name="pet" unicode="&#67;" d="M505 276c-15-26-38-33-56-35 4-17 7-36 7-59 0-31-7-58-21-79-12-19-30-34-53-45-41-20-92-22-126-22-34 0-85 2-126 22-23 11-41 26-53 45-14 21-21 48-21 79 0 23 3 42 7 59-18 2-41 9-56 35-13 22-8 52 14 88 17 27 39 53 55 67 34 29 62 28 76 25 5-1 11-3 15-6 24 18 54 26 89 26 35 0 65-8 89-26 4 3 10 5 15 6 14 3 42 4 76-25 16-14 38-40 55-67 22-36 27-66 14-88z m-249-118c4 0 12 4 20 12 9 8 13 16 13 21 0 3-1 4-3 5-7 2-21 3-30 3-10 0-23-1-30-3-2-1-3-2-3-5 0-5 4-13 13-21 8-8 16-12 20-12z m-159 250c-14-12-34-35-49-59-15-26-20-47-14-58 9-16 23-19 39-20 2 7 4 13 7 19 4 12 9 24 14 39 12 34 26 70 48 98-7 1-24 0-45-19z m159 38c-75 0-105-45-132-127-5-15-10-28-15-40-13-33-22-58-22-97 0-47 19-78 56-96 24-12 56-18 97-19l0 63c-12 5-22 14-27 18-6 7-21 23-21 43 0 15 8 27 22 33 10 4 22 6 42 6 20 0 32-2 42-6 14-6 22-18 22-33 0-20-15-36-21-43-5-4-15-13-27-18l0-63c41 1 73 7 97 19 37 18 56 49 56 96 0 39-9 64-22 97-5 12-10 25-15 40-27 82-57 127-132 127z m208-97c-15 24-36 47-49 59-21 19-38 20-45 19 22-28 36-64 48-98 5-15 10-27 14-39 3-6 5-12 7-19 16 1 30 4 39 20 6 11 1 32-14 58z m-156-78c-11 0-21 9-21 20 0 12 10 21 21 21 11 0 21-9 21-21 0-11-10-20-21-20z m-104 0c-12 0-21 9-21 20 0 12 9 21 21 21 11 0 20-9 20-21 0-11-9-20-20-20z"/>
<glyph glyph-name="desconto" unicode="&#68;" d="M368 172c-9-8-20-13-32-13-12 0-24 5-32 13-18 18-18 47 0 65 8 8 20 13 32 13 12 0 23-5 32-13 17-18 17-47 0-65z m-18 47c-4 3-9 6-14 6-6 0-11-2-14-6-8-8-8-21 0-29 3-3 8-5 14-5 5 0 10 2 14 5 8 8 8 21 0 29z m-143-51c-2-3-6-4-9-4-3 0-6 1-9 4-5 5-5 13 0 18l155 156c5 5 13 5 18 0 5-5 5-13 0-18z m12 94c-12 0-23 5-32 14-9 8-13 20-13 32 0 12 4 23 13 32 9 9 20 13 32 13 12 0 23-4 32-13 9-9 13-20 13-32 0-12-4-24-13-32-8-9-20-14-32-14z m14 60c4-4 6-9 6-14 0-6-2-11-6-14-4-4-9-6-14-6-5 0-10 2-14 6-4 3-6 8-6 14 0 5 2 10 6 14 4 4 9 6 14 6 5 0 10-2 14-6z m210 101c45-45 69-104 69-167 0-63-24-122-69-167-44-45-103-69-166-69-62 0-121 24-166 69-44 45-69 104-69 167l0 3-20-21c-5-5-13-5-18 0-5 5-5 13 0 18l42 42c5 5 13 5 18 0l42-42c5-5 5-13 0-18-2-3-5-4-9-4-3 0-6 1-8 4l-21 21 0-3c0-116 94-211 209-211 116 0 210 95 210 211 0 116-94 211-210 211-57 0-110-23-150-64-5-5-13-5-18 0-5 5-5 13 0 18 45 46 104 71 168 71 63 0 122-24 166-69z"/>
<glyph glyph-name="more" unicode="&#69;" d="M303 1l0 203 206 0 0 100-206 0 0 200-97 0 0-200-206 0 0-100 206 0 0-203z"/>
<glyph glyph-name="festa" unicode="&#70;" d="M510 350c0-1 0-2 0-3-1-2-2-2-4-2-1-2-2-2-4-2-2 0-2 0-5 2-1 1-2 2-1 4 0 3-1 4-4 4-1 0-2 0-3 0-1 0-2-1-3-1-5 1-10 0-15-1-1 0-1 0-2 0-5-3-11-4-17-4-3 1-7-1-10-2-3 0-5-1-7-1-2 1-4 0-6-1-1-1-2-1-2-1-2 0-4-1-7-1-1 0-3-1-4-1-2-2 0-2-2-3 0 0-1 0-2-1-2 0-2 0-2-2 0-1 0-3 0-4-1-2-1-3-2-5 0-1-1-2-2-4-3-3-5-7-6-12-1-2-2-4-3-6-2-3-3-5-3-8-1-1-1-2-2-3-1-3-3-6-5-9 0-1-1-2-1-4 0 0 0-1 0-1-1-1-2-2-3-3 0-2 0-2 0-4-1-2-2-4-2-6-1-2-1-3-3-5-2-4-4-8-4-12 0-3-2-5-3-8-1-3-2-5-2-7-1-1-1-2-2-3-1 0-1-1-1-1 1-2-1-3-1-5 0 0 0-1-1-1-1-1-1-1-1-3 0 0 0-2-1-3 0 0 0-1 0-1 1-2-5-4-6-6-1-1 3-3 2-5-1-1-2-3-2-4 0-2 0-4-3-4 0-1 0-1 0-1 0-2-1-3-3-5 0 0 0 0 0-1 1-2 0-4-1-6-1-1-1-2-1-3 1 0 1-1 1-2-1-1-1-3-2-3-2-4-3-8-4-11-1-3-1-6-2-9 0-2 0-3-1-4-2-1-8-2-10-2 0 0-1 0-1 0-1 2-4 1-7 2-1 0-2 1-3 2-2 3-4 6-3 11-1 4 1 8 2 12 1 5 3 9 5 13 1 2 1 4 2 6 2 5 3 10 5 16 2 4 3 8 4 12 1 2 2 4 2 7 1 0 1 0 1 1 3 3 4 7 5 11 1 3 2 5 3 8 1 1 2 3 2 4 0 1 0 2 1 3 1 2 2 5 3 8 0 1 1 3 2 4 1 3 3 6 3 10 1 2 2 4 3 6 0 2 1 3 1 4 1 2 1 4 3 6 1 1 1 2 1 2 2 4 3 8 5 12 1 0 1 0 1 1 1 4 4 9 6 13 0 1 0 1 0 2 2 3 1 4-2 3-2-1-3-1-4-2-3-1-5-2-8-2-2 0-4-1-6-2-4-1-12-1-16 1-2 1-3 2-5 4-1 0-2 0-3 1-1 3 2 9 5 11 4 3 9 3 13 3 4-1 8 1 12 0 3 0 7-2 10-1 1 0 1 0 2 1 0 1 0 2 0 2 2 6 7-3 8 1 0 0 1 1 2 1 1 0 2 1 3 2 1 1 2 1 4 1 3-2 4-1 7 2 0 0 1 1 1 1 1 0 1 0 2 0 0 0 0-1-1-1 0 0 0 0 0-1 0 0-1 0 0-1 0 0 0 0 1 0 0 1 1 1 1 1 3 1 5 2 8 2 1-1 4-1 6 0 3 1 6 2 8 1 1-1 2-1 2 0 1 1 1 1 2 1 1 0 3 0 4 0 0-1 0-2 0-2 0-2 0-2 2-2 2-1 3 0 5 1 0 1 2 1 2 2 1 0 1 1 1 1 0 0-1 0-1 0-1 1-2 1-2 0-1-1-1-1-2-2 0 0-1 0-1 0-1 1-1 2 0 3 0 1 1 1 1 1 2 0 4 0 5 2 3 1 5 0 7 0 0 0 0 0 0-1 0-1-1-2-1-3-1-1-1-1-2-2 1 0 2 0 3 0 3 1 6 2 9 3 1 0 1 1 0 2-1 2 0 2 1 3 0 0 1 1 1 0 1 0 2-1 2-1 1 0 2 1 3 1 0 2 2 1 3 2 1 1 3-1 4 1 1 1 3 0 4 0 1 0 2 0 2 0 3 0 5 1 7 1 1 0 2 0 2 1 1 0 1 0 2 1 0 1-1 1-2 1-1-1-1 0-2 1 0 1 0 1 2 2 1 0 1 0 2 0 5 1 7-1 9-4 1-2 3-3 5-3 1-1 3-2 4-4 0-2 2-3 3-5 2-1 1-3 0-5z m-179-158l0 0c-1 0-1-1-1-1l0 0c0 0 0 0 0 0 1 0 1 0 1 1 0 0 0 0 0 0z m19 140c-1 0-1 0-1 0-1 0-1-1-1-1l1-1c0 0 0 0 1 0 0 1 1 1 1 2 0 1-1 1-1 0z m22 7c0 0 0-1 0-1 0 0 0-1 0-2 1 1 2 2 2 2 0 1-1 1-2 1z m5 1l-1 0c1 0 1 0 1 0l0 0c0 0 0 0 0 0z m24 5c0 0-1-1-1-1l-1 0c0 0 0 0 0 0 0 0 0-1 0-1 0 0 1 0 2 0 0 0 0 0 1 1z m23 5c0 0-1 0-1 0 0-1 2-2 3-1 0 0 0 0 0 0 0 1-1 2-2 1z m5 1c-1 0-1 0-1 0 0 0 0-1 1-2 0 1 0 2 0 2 0 0 0 0 0 0z m37 7l0 0 0 0z m-1 11c0 0 0 0 0 0 0 0 0 0 1 0-1 0-1-1-1-1z m-11-3c0 1 1 1 1 1 1 1 3 1 5 1 0 1 0 0 0 0 0-2 0-3-2-4-2 0-4 0-4 2z m-3-6l1 1c0-1 0-1 0-1l0 0c-1 0-1 0-1 0z m-63-9l-2 1c1 0 1 1 1 1 1 0 2 1 3 1 0 0 1 0 1-1 0 0 0 0 0 0-2-1-2-2-3-2z m-122-116l8 4-8-4-1-1 0 0 0 1z m-2-1l1 0-1 0z m63-14c0-1-2-2-3-3 0 0 0-1 0-1 3-1 2-2 1-4-3-4-6-8-10-11 0-1 0-2-1-3 0-1-1-1-1-1 0 0 0 0-1 1-1 0-1 0-2-1-3-4-7-8-10-13-2-2-6-4-8-6-2-4-6-5-10-6l-1 2 0-1 1-1c-2-2-4-5-7-6-8-4-18-8-27-12-3-1-7-3-11-4-4-1-8 1-11 1-11 0-19 4-27 9-2 1-4 2-5 4 0 0 0 0 0-1-2-3-4-4-7-5-2 0-4-1-5-4 0 0-1-1-1 0-1 0-2 0-3-1-3-2-6-3-9-3-3 0-6 0-8-1-4 0-9 0-12 2-2 0-4 2-6 1-1-1-2 0-3 1-5 2-10 5-14 8-5 3-9 7-11 13-2 5-3 10-2 16 0 4-1 7 1 10 0 2 1 3 2 2 2-1 3 1 4 1 1 0 2 2 2 2 0 2-1 2-2 2-2-2-4-3-4-2-1 0-1 1-1 2 1 3 2 7 3 11 0 1 0 2 0 3 1 1 2 3 2 5 0 2 0 3 1 5 2 6 4 12 6 18 1 1 1 3 2 4 4 5 6 10 7 16 1 1 1 2 1 3 4 7 8 15 12 22 1 2 2 3 2 5 3 6 7 10 11 15 2 3 6 5 9 8 3 0 6 2 9 1 6-1 11-4 15-8 1 0 1-2 1-3 0-5 3-6 6-8 0 0 1 0 2 0 3 1 6 1 9 2 5 1 10 3 15 4 3 1 6 1 10 1 2-1 2-3 1-5-1-1-2-2-3-4-2-4-8-5-10-10-3-2-6-3-9-4-3 0-6-1-8-2-3-2-7-3-11-3-2-1-4 0-6 1-2 0-2 0-4-2 0-1-1-1-2-2-1-4-4-7-5-11-3-5-6-9-8-14 0-1-1-1-1-2 0-2-1-4-2-5-3-3-4-6-4-9-1-3 0-3 2-2 6 1 13 3 19 5 4 1 9 3 13 4 3 2 5 2 8 3 1 1 2 1 3 1 3 3 7 4 11 5 4 1 7-1 5-6-1-3-3-6-4-9-1-2-2-3-4-4-3-1-6-3-9-4-3-1-6-2-8-4-4-1-8-3-12-2-6 1-11-2-17-4-2 0-3 0-5 0-3 0-6-1-9-2-1 0-2-1-2-2-1-2-2-5-3-8 0-1 0-2-1-3-2-3-2-7-3-10 0-2-1-5-2-7-2-6-3-13-2-19 0-1 1-2 1-3 1-4 2-5 6-4 4 1 8 2 12 4 5 2 10 4 15 6 6 3 11 5 16 8 9 12 21 21 33 30 9 6 19 12 28 19 2 0 3 1 4 1l-1-2c3 1 5 2 8 3 1 1 2 1 3 1 0-1 0-2-1-2-4-3-7-6-11-9-8-5-15-11-22-17-4-3-9-7-9-12 0-3 1-5-4-6 0 0 0 0 0 0 2-6-6-8-7-12 0-1-1-4 0-4 2-2 4-3 7-1 5 3 11 5 16 7 5 3 9 6 14 9 1 0 2 0 3 0 2 1 4 1 5 2 1 0 1 0 1 1 0 0-1 0-1 0-1-1-2-1-3-1 0 0 0 0-1 0 0 0 1 1 1 1 2 1 5 2 8 3 2 1 3 3 5 4l0 0-1 1 3 3c0 0 0-1 0-1 0 1 1 2 2 3 0 0 1 1 1 1 2 2 3 4 5 6 1 1 2 1 3 1 0-1 1-1 1-2-1-2-2-3-4-5-4-4-8-8-12-12-1-1-2-3-4-5-2-1-4-3-6-4-6-1-5-4-3-7 1-2 1-3 4-1 6 5 13 11 19 16 3 4 6 7 9 11 2 3 3 6 5 9 0 1 1 1 1 2 1 2 2 4 2 6 0 0-1 0-1 0-1 0-1 0-2-1-2 0-4 0-5 0 0 1 1 2 1 4 6 7 8 15 9 23 0 0-2 2-3 3-6 1-12 1-18 3-6 1-13 3-19 5-2 1-4 3-5 4-1 1-2 0-2 0-4 3-7 6-10 9-2 2-5 3-7 5-1 2-3 5-3 7 0 8 1 15 6 22 4 5 7 11 12 15 5 5 11 9 17 12 6 5 15 8 24 8 8 0 16 0 24-3 3-1 7-2 10-4 6-4 7-8 1-14-2-2-2-4-4-6 0-1-2-2-3-2-6-2-6 3-7 5-3 4-5 4-8 2-5-4-10-8-16-11-4-3-8-5-11-8-5-5-11-8-12-15-1-1-3-2-4-3-4-8 3-16 13-16 9 0 18 0 27-3 7-3 14-6 22-9 1 0 3-2 3-3 2-3 2-7 5-9 1-1 1-3 1-4-2-5-3-10-5-15z m-206-43l1 0 0 1-1 0z m0 6c0 0 1 0 1 1 0 0 0 2 0 2 0 0-1-1-1-2-1 0 0-1 0-1z m-1 8c-1 1-2 1-2 1-1 0-2 0-2-1-1 0-2-1-2-1 0-1 1-1 1-2 1 0 1 0 1 1 2 0 2 0 2-2 0-1 1-1 2-1 0 0 1 0 2 1 0 1 1 2 1 3 0 2-2 1-3 1z m28 81c-1 0-1 0-1-1 0 0 1 0 1 0 0 0 0 1 0 1 0 0 0 0 0 0z m1-6c0 1 1 2 1 3 0 0-2 1-2 1-1 0-1 1-1 1l-2 0c0-2-2-4-2-6-1-1-2-2-3-3-1 0-2-1-1-3 1 0 1-1 0-1-3-1-4-3-6-5-1-1-1-2-1-3-1-4-1-7-1-11 0-1-1-2-2-2 0 1-1 1-1 1-1 1-1 0-2 0 0 0 0-1-1-1 1 0 2 0 2 0 1 0 1 0 2 0 0-1 0-2 0-3 0 0 0-1 0-1-1 0-2 0-2 0 0 0-1 1-1 1 0-1-1-1-1-2 0-2 0-3 0-5 0-2-2-4 0-5-1-1-2-2-2-3-1-3-2-5-4-7-3-2-2-3 1-5 2 1 3 2 4 5 1 2 2 5 5 6 0 1 2 1 2 2 1 1 0 2 0 3 0 1 0 2 0 3 2 3 3 6 3 9 0 3 1 5 3 6 3 1 4 3 4 5 0 2 1 4 1 5 0 1 0 2 1 3 1 4 3 8 6 12z m99-42l0-1 0 0z m8 4c0 0 0 0 0 0l-2-1c1 0 1 0 2 1z m-3-2l1 1-1-1z m-6-9l1 1c0 0 0 1-1 1 0 1-1 0-1 0z m-9-6c0 0 1 0 2 1-1 0-1 1-1 1-1 0-1-1-2-1 0 0 0-1 1-1z m-7-6c1 1 2 2 3 3 0 0 0 1-1 2 0-2-2-3-2-4-1 0 0-1 0-1z m-20-33c0 0 0 0 0 0l0 0c0 0 0 0 0 0 0 0 0 0 0 0z m1 2l0 0 0 0 0 0z m13 29l1 0 0 0-1 0z m-4-6l4 2-1 2c-1-1-2-2-3-3-1 0 0 0 0-1z m-3-3c0 0 0 1 0 1l-4-1 1-2c0 0 1 0 1 1 1 0 1 1 2 1z m4-29c0 0-1 0-1-1 0 0 0-1 0-1 1 0 1 0 2 0 0 1 0 2-1 2z m3 1c0 0 0 0-1 0 0 0 0-1 0-1l2 1c0 0 0 0-1 0z m15-11c1 0 2 1 2 1 0 0 0 1 0 1l-2-1c0 0 0-1 0-1z m-12 13c0 0 1-1 1-1 1 1 2 1 3 2 0 0 0 0 0 0-1 0-2-1-4-1z m5 1c3 0 5 1 6 4-2-1-4-3-6-4z m12 7c-2-1-3-2-5-3l6 3c0 0-1 0-1 0z m2-17c-1 0-1 0-1 0 0-1 0-1 0-2 1 0 1 1 1 1 0 0 0 1 0 1z m4 0c0 0 0 0 1 0 0 1-1 1-1 2 0 0-1-1-1-1 0 0 0-1 1-1z m-1 21c0 0 0 0-1-2 2 1 2 2 3 2 0 0 0 1 0 1 0 0-1-1-2-1z m24-7c-3-2-5-4-8-6 0 0 0 0 0 0 1 0 1 0 2 0 2 2 4 3 7 5 0 0 0 0 0 0 0 1-1 1-1 1z m2 2l1-1c0 0 1 1 1 1z m4 7c0 0 0 0 0 0z m3-4c0 0-1 0-1 0 0-1 0-1 0-2 1 0 2 0 2 1 0 0 0 1-1 1z m4 3c-1 0-1 0-1 0l0-1 1 0z m12 43l0 0 1 0z m9 5l0 0 0 0 1-1 0 0c0 0-1 1-1 1z m-182 91c0 0-1 0-2-1-1 0-1 0-2-1-1-2-2-3-4-5 0 0-1-1-1-1-1-2-3-4-5-5 0-1-1-1-1 0-1 2-1 3 0 6 1 1 1 2 1 3 0 1 1 1 1 2 0 0 0 1 0 1-1 2-2 4-4 4-3 0-5 0-8 1-2 0-4 0-6 0 0 0-1-1-1-1 0-2 0-2-1-3 0-1 0-2-1-3-1-1-2-2-3-4 0-1-1-3-2-5 0 0-1-1-1-1 0-2-1-5-2-7 0 0-1-1-1-2-1-3-3-6-4-9 0-1 0-2-1-3 0 0 0 0-1 0 1 4 3 16 2 14 0 0-1-1-1-1 1-2 0-3-1-5-1-2-1-3-1-5 0-1 0-2-1-3-1-2-2-4-2-5 0-1-1-1-1-1 0-1-1-2-1-2 0-4-2-7-3-11-1-2-2-5-3-7 0 0 0-1 1-1 1-1 2-1 3-1 2 1 3 1 5 0 1 0 2 0 3 0 2 1 4 1 5 1 3 0 7 0 10 1 1 1 2 1 2 1 2-1 5 0 7 0 2 1 3 1 5 2 1 0 2 0 2 0 1-1 2-1 2 0 2 0 4 0 6 1 1 0 1 0 1 0 2 0 3 0 4-1 0 0 1-1 1-1 1-1 0-2-1-2 0 0-1-1-1-1-2-1-4-2-5-4-1 0-1 0-2-1l0 0 0 0c1 0 1 0 1 0 1 0 2 0 2-1 0-1-1 0-2-1-2-1-5-1-7-2-2 0-5 0-7-1 0 0-1 0-1 0-3-2-6-2-9-2-4 0-7 0-11 0-2 0-4-1-5-1-2 0-4 1-6 1-1 0-3 0-4 0-2 0-4-1-4-3 0-1-1-2-1-3 0 0-1-1-1-2 0-2-1-5-2-8 0 0-1-1-1-1-1-1-1-3-1-5 0 0 0-1-1-2-1-1-2-3-3-5-1 0-1-1-1-2 0 0 1 0 1-1 0-1 0-1 0-2-1-1-1-1-1-2-1-2-2-4-2-6-1-2-1-3-1-5 0-1 0-2-1-3-1-2-1-4-2-6-1-2-2-3-2-5 0-2 0-4 0-6 0-1 0-2 1-2 0 0 1-1 1-1 0 0 0-1 0-1-1 0-1 0-1 0-1 0-1 0-1-1-1-1-2-2-2-3 0 0-1-1 0-1 0-1-1-2-2-3 0 0-1-1 0-2 0-1-1-3 0-4-1-1-1-3-2-5-1-2-1-3-1-4 0-2 0-3-1-4-1-2-1-3 1-4 0 0 0 0 0-1 0 0 1 0 1-1 0 0-1-1-1-1-2-1-4-2-5-2-2-1-3-1-4 0-1 0-3 1-4 2-1 0-2 0-3 0-2-1-3 0-5 0 0 1 0 1-1 1-1 1-1 1-2 0-2 0-3 0-4 1-1 1-2 2-2 4-1 3-1 7-1 10 0 3 1 6 1 9 1 3 1 7 2 10 1 3 1 6 2 9 1 3 2 6 3 9 0 0 0 1 0 2 1 0 2 1 3 1 0-1 1-1 0-2-1 0-1-1 0-1 0-1-1-2-1-2-1-2-2-5-1-7 0 0 0-1-1-1 0 0 0-1 0-1 0-1-2-3-1-4 0 0 0-1 0-1-1-1-1-2-1-3 0 0 0-1 0-1-1-1-1-2-1-3 0-2 0-3 0-5 0 0 0 0 0-1-1-2-1-3-1-4 0 0 0-1 1-1 0-1 0-1 0-2-1-1-1-2 1-2 0-1-1-1-1-2-1-1-1-1-1-2 0-2 1-3 1-5 0 0 1 0 2 0 0 0 1 1 1 1 0 1 0 2 1 2 0 0 0 1 0 1 0 0-1 1-1 1 0 2-1 3-2 4 0 0 1 1 2 2 0 1 1 2 1 2 0 1 0 1 0 1 2 2 1 3 0 3 0 1 0 1 1 2 0 0 0 0 0 1 0 1 1 4 1 6 1 0 1 1 1 2 0 0 0 1 0 2 0 1 1 2 2 2 0 1 0 2 1 3 0 2 1 2 2 3 2 0 3 0 4 0 1 1 2 1 2 0 0 0 1 1 1 1 0 0 0 0 0 1 0 1-2 2-4 1-1 0-2-1-3-2-1-1-2 0-3 0 0 1 0 2 1 3 0 0 0 1 0 1 1 1 1 1 0 2 0 1 0 1 1 2 1 0 1 0 1 1 0 1 1 2 1 3 0 1 0 2 1 3 1 1 1 2 0 3 0 1 0 2 1 4 1 1 1 1 0 1 0 1 1 1 1 2 1 0 2 2 2 3 0 0 0 0 0 0 0 1 2 2 2 3 0 2-1 3-1 4 0 0 0 1 0 1 0 1 0 1 0 1 2 0 1 1 1 2 0 2 1 3 3 3 0 0 1 1 1 1 1 0 1 0 0-1 0-1 0-2 1-2 1 1 1 1 2 1 0 0 1 1 1 1 1 1 0 1 0 1-1 1-2 1-3 1-1 0-2 0-2 1 0 1 0 2 0 3 0 0 0 1 1 1 1 1 1 1 1 1 1 0 1 0 1 0-1 1-1 1 0 2 1 1 1 1 0 1 0 0 0 0-1 0 0 1-1 1 0 2 1 1 1 2 2 3 2 2 3 4 2 5-1 1-1 2-1 2 2 2 1 2 0 3 0 0 0 1 0 1 1 1 2 2 3 4 2 1 1 2 2 3 0 2 1 4 2 6 1 1 1 1 0 2-1 0 0 2 0 3 1 1 2 3 2 4 1 1 1 1 0 1-1 1-2 1-4 1 0 0-1-1-1-1 0 0 0-1 0-1 1-1 0-1-1-2 0 0-1 0-1-1 0-1 0-2 0-3 0-1 0-3-2-5 0 0-1-1-1-1 1-1 0-2 0-2 0-2 0-3 2-3 0 0 0 0 0 0 0-1-1-1-1-1 0 0 0 0 0 0-1-1-2 0-2-1-1-1 0-1 0-2 0-1-1-1-2-1-1-1-2-1-2 0 1 2 1 3 1 5 1 1 2 3 1 5 0 0 0 1 1 1 1 2 1 4 2 5 1 2 1 3 1 5 0 0 0 1 1 2 1 0 1 1 1 1 0 3 1 6 2 8 1 2 2 5 3 7 0 0 0 1 0 1 0 1 0 2 0 2 2 4 0-12 1-8l0 1c1 2 1 4 2 5 0 1 0 2 1 2 0 2 1 3 1 4 1 4 3 7 4 11 1 2 1 3 1 4 0 2 1 3 2 5 0 0 0 1 0 2 2 2 3 4 3 6 0 1 0 1 1 2 1 2 3 4 5 5 1 1 3 2 5 2 1 0 2 1 4 1 1 1 2 1 3 0 2-1 4-1 5-3 0 0 1-1 2-1 2 0 4 1 6 1 1 0 1 0 2 0 2-1 4-1 6-2 1 0 1 0 2 0 1 1 2 1 3 1 1 0 2 0 3-1 1 0 2 0 3 0 0 0 0-1 1 0 1 0 3-1 4-1 5 1 9-2 13-3 1 0 3-1 3-2 1-1 2-1 2-2 1-1 1-1 1-2 1-2 0-2-2-4-1-1-2-2-4-1z m-110-151l0-1c1 0 1 0 1 0 1 0 1 0 1 0 1 0 1 1 2 1 0 0-1 1-2 0 0 0-1 0-2 0z m3 7l0 0 0 0c0 0 0 0 0 0z m1-2c0 0-1 0-1 0 0-1 1-1 1-1 0 0 1 1 1 1 1 0 2 0 2 0 1 0 1 0 1 0l0 1c-1 0-2 0-3 0-1 0-1-1-1-1z m4 7l0 0 0 0z m0 3c0 0 0 0-1 0l1 0 0 0c0 0 0 0 0 0z m9 52l0-1 1 1z m27 58c0 0 0 0 0 0l0 0 0 0c0 0 0 0 0 0z m-5-28c0 1 1 1 1 1 0 1 0 1-1 1 0 0-1-1-1-1 0 0 1 0 1-1z m-2-21c0 0 0 0 0 0 0 1 0 1 0 1 0 0 0 0-1 0 1-1 1-1 1-1z m-4-10c0 0 0 0 1 0 0 0 0 0 0 0 1 0 1 0 1 1 0 1 0 1-1 1 0-1 0-1-1-1 0 0 0 0 0-1z m2 14c-1 0-1 0-1-1l0 0z m-4-12c0 0 0 0 1 1 0 0 1 1 1 1-1 0-1 0-2 1 0 0-2-1-2-2 0 0 0 0 0 0 0-1 1-1 2-1z m0 7l0 0 0 0 0-1z m-2-13c0 0 0 1-1 1 0 0 0 0-1-1 0 0 0-1 1-1 0 0 1 0 1 1z m-2-4c0 0 0 0 0 0l0 0c1 1 1 2 1 2-1 0-1 0-1 0-1 0-1 0-1-1 1 0 1-1 1-1z m-3-9c1 0 1 0 2 1 0 0 0 0 0 0l0 1c0 0-1 0-2 0 0 0-1-1-1-1 0-1 0-1 1-1z m1 15c0 0 0 0 0 0l-1-1 0 0c1 0 1 1 1 1z m-2-27l0 0 0 0c0 0-1-1-1-1 0 0 1 0 1 1z m-3-18l0 0 0 1 0-1z m-3-11c0 0 1 1 1 1 0 0-1 0-1 0-1 0-2-1-3-2 1 0 2 0 3 1z m-3-8l0 0-1 0z m-2-4c1 1 1 1 1 1 0 0 0 0 0 1 0-1-1-1-1-1 0 0 0 0 0-1z m1 10c0 0 0 1 1 1-1 0-1 0-2-1 0 0 0 0 0 0 0 0 1 0 1 0z m-3 25l0 0 0 0c0 0 0 0 0 0z m6 18l-1 0 0 0 1 0z m-4-13c0 0 0 0-1 0 0-1 0-1 0-1 1-1 1-1 2-1 2 0 4 1 5 0 2 0 3 1 3 2-1 1-2 1-4 0-1-1-3-2-5 0z m4 4c1-1 1-1 1-1 1 0 1 0 1 0 0 0 0 0 0 1-1 0-1 0-1 0-1 0-1 0-1 0 0 0 0 0 0 0z m4 17c-1 0-1 0-2 0-1-1-1-1-1-2 1 0 1-1 0-2-1 0-1 0-1 0 0-1 0-1 0-1 2 0 3 0 4 1 1 0 1 1 2 1 1 2 1 2-1 3 0 0-1 0-1 0z m1 11c0 0-1 0-1-1 0 0 1 0 1 0 1 0 3 1 4 1 0 0 1 0 1 1l0 0c-1 0-2 0-3 0 0 0-1 0-2-1z m1 6c0-1 1-1 1-1 2 0 3 1 4 1 1 0 2 0 2 1 0 0-1 0-1 0-1 0-3 0-4 0-1 0-2-1-2-1z m4 8c0 1-1 0-1-1-1 0-1-1-1-1 0 0 0-1 0-1-1 0 0-1 0-1 1 0 2 1 2 1 0 1 1 2 1 2 1 0 1 1 1 1-1 0-1 0-2 0z m3 16l0 0 0 0z m0-2c0 0-1 0-1 0 0 0 0-1 0-1 0 0 0 0 0 0 1 0 1-1 2-2 0 0 1 0 1 0 1 1 2 4 2 4-2 0-3 0-4-1z m6 32c0-1-1-1 0-1 0 0 0-1-1-2-1-1-1-1 0-2 0-1 0-1-1-2 0 0 0-1 0-1 0 0 0 1 1 1 0 0 1 1 0 1-1 1 1 2 1 3 0 0 0 0 0 0 0 2 0 4 0 3z m-2-14c0-1 1 0 1 2 0-1-1-2-1-2z m2-4c-1-1-2-2-2-3-2-2-2-3-2-4 0-1-1-2-1-3 0 0 0-1 1 0 1 0 2 0 2 1 1 1 2 2 4 2 1 0 1 0 1 2 1 0 1 1 1 1 0 0 0 0 0 0 0 0 0 0 0 0-1 0-1 0-2 0 0 0-1 0-1 0 0 0 0 1 0 2 0 0 0 0 0 1 0 0 0 1 1 1 0 0 0 1 1 1 2 0 2 2 3 3 0 0 0 1 0 1-1 0-2 1-2 1-1 1-2 1-2 0 0 0-1 0-1 0 0-1 0-1 1-1 0 0 1-1 2-1 0 0 0 0 0 0 0 0-1 0-1 0-1 0-1-1-1-2 0 0 0 0-1 0 0 0 0 0-1-1 0 0 0-1 0-1z m4 21c-1 0-1 0-1 0 0-1-1-2-2-3 0 0 0-1 0-1 1 0 2 0 2 2 1 0 1 0 1 0 0 1 0 1 0 2 0 0 0 0 0 0z m2-4l-1 0c0 0 0-1 1-1 0 0 0 1 1 1-1 0-1 0-1 0z m2-3c-1 0-1 1-1 1-2 0-3-1-3-1-1-1-1-2-2-2 0-1 0-1 0-1 0-1 1-1 1-1 1-1 1-1 1 0 1 1 2 2 3 2 1 0 1 1 1 1 0 0 0 1 0 1z m2 4c0 1-1 0-1-1 0 0 0 0 0 0 0 0 1 0 1 1 0 0 0 0 0 0z m-32-66c0 0 0 1 0 1 0 0 0 0 0 0l0 0z m1 18c-1-2-2-3-1-4 0-1 0-2 0-2-2 0-1-1-2-2 0-2-1-4-2-6 0-1-1-2 0-3 0-1 0-1-1-2 0-1-1-1 0-2 0 0 0-1 0-1-1-1-1-2-2-3 0-1-1-2-1-3 0-1 0-2-1-2-1-1-2-1-2 0 0 2 0 3 1 5 1 2 3 4 3 6 0 0 0 0 0 0 2 4 1 7 2 11 1 0 1 1 1 2 1 0 1 1 1 1 0 1 1 3 2 4 0 1 0 1 0 2 0 0 0 1 1 1 0 0 1 1 1 0 0 0 0-1 0-1 0 0 0-1 0-1z m-10-34c0 0 0 0 0-1-2-3-3-6-3-9 0-1 0-2 0-3-1 0-2-1-2-2-1-1-2-1-2 0 0 2 0 4 0 6 1 1 1 2 2 3l-1 0c1 2 2 4 3 6 0 0 0 1 1 1 0 0 1 1 1 0 0 0 0 0 1-1z m350-53c0 4 3 8 5 12 4 5 7 11 10 16 1 1 1 2 2 3 2 2 3 3 4 5 0 1 1 1 1 2 3 3 5 6 7 10 1 2 2 4 4 6 1 2 1 3 2 4 0 0 0 1 1 1 3 3 6 7 7 10 1 1 1 2 2 2 1 3 1 4-2 4-6-1-11-1-16-2-4-1-9-2-13-3-2 0-4-1-6-3 0 0-1-1-2-1-1-1-2-1-3-1-1 1-2 2-4 3-1 1 0 2 1 3 1 1 3 2 5 4 6 2 12 4 18 6 2 1 4 1 7 2 0 0 1 0 2 0 6 0 12 3 19 4 4 1 7 4 9 7 2 4 4 7 6 11 1 1 2 2 3 3 1 4 5 7 6 10 1 2 2 4 4 6 0 0 1 1 1 2 1 1 2 3 4 5 1 2 2 3 3 5 1 2 2 3 3 4 4 6 6 12 10 17 0 1 0 2 0 2 0 1 0 3 1 4 0 1 0 1 0 2 0 1 1 2 2 3 2 1 4 2 6 4 1 0 1 0 2 0 6 1 11 0 15-2 3-2 4-4 5-7 0-1-1-3-1-5-1-1-2-3 0-5 1 0 1-1 1-2 0-4 0-8 0-13 0 0 1-1 1-2 0-1 0-2 0-3-1-3 0-5 0-7 0-1 0-2 0-3-1-4 0-6-2-9 0-1 0-2 1-2 1-2 1-3 0-5 0-2-1-5-2-7 0-1 0-3 0-4 0 0 0-1-1-1-2-1-1-2 0-3 2-2 2-4 1-7-1-2 0-4 2-5 1 0 2 0 2 0 1-1 2-1 2-2-1-1-2-2-3-2-1-1-1-1-1-1-3 0-4-1-5-4 0-1 0-3-1-5 0 0 0-1 0-1 1-3 1-6 0-9 0-1 0-2-1-2-2-1-1-2-1-3 1-2 1-3 1-6-1-5-2-10-3-15 0-2 0-4-1-6-1-2-1-4-2-5 0-1 0-2 0-3 1-4 0-8-1-12-1-2-1-3-3-5 0 0-1 0-1 0-5-1-10-4-15-1 0 0 0 0 0 1-2 2-5 3-7 4-2 2-3 4-2 6 1 5 2 9 3 13 1 2 1 5 1 7 0 0 1 1 2 1 2 1 3 1 0 2-2 1-1 3 0 4 0 2 2 3 1 5-1 1 1 2 2 3 0 0 0 0 0 1 0 0 0 0 0 0-1-1-2-1-2 0 1 2 2 4 2 6 1 1 0 3 1 5 0 1 1 3 1 4 1 2 1 3 2 4 1 1 1 1 0 1-2 0-2 1-2 3 0 3 0 6 1 9 0 0 0 1-1 1-1 0-2 1-3 1-6 0-11 0-17-1-2 0-3 0-4-2-1-1-2-3-3-4-2-2-3-4-5-6-1-2-2-3-2-5 0-1-1-3-3-4-2-2-5-6-5-9-1-1-2-3-3-4-2-1-3-3-3-5 0-1-1-2-2-4-1-1-3-3-4-4-3-2-4-4-5-6 0-1 0-1-1-1-2-3-3-6-5-9-1-3-3-5-5-8l1 0c1 0 2 0 1-1 0-1-1-1-1-3 0 0 0-1-1-1-2-3-3-5-4-7 0-1 0-1 0-2 1-1 0-2-1-2-1-1-3-3-3-4-1-2-2-3-1-4 1-1 1-2 0-3-1 0-2-1-3-1-3-1-6-2-9-2-3 0-5 1-6 3-1 0-2 1-2 1-5 1-7 3-6 7 0 3 1 6 3 9 1 1 2 2 2 3z m70 101c0 0 0 0 0 0l1 0c-1 0-1 0-1 0z m25 29c-2-1-4-3-4-5 0 0 0 0 0 0 0 0 1 0 1 0 1 1 3 2 4 3 0 1 0 1 1 2-1 0-1 0-2 0z m5 6c0 0 0 1 0 0-2 0-2-1-3-2 0 0 0-1-1-1 0 0 1-1 1-1 1 0 1 1 1 1 1 1 3 2 2 3z m8-60l0 0c0 0 0 0 0 0z m3 26c0 0 0 0 0 0-1 0-1 0-1 0 0 0 0-1 0-1 0-1 0-2 0-2 0-1 0-1 1-1 0 0 1 1 1 1 0 1 0 2-1 3z m0-5c-1-1-1-1-1-1-1-1-1-1-1-2 0 0 0-1 0-2 0 0 1 0 1 0 0 0 0 0 0 0 1 2 1 3 2 4 0 0-1 0-1 1z m-14-78c0-2 0-3 0-5 1 0 1 0 1 0 1 0 1 0 2 0 0 1 0 1 0 2 0 1 0 2 1 3 1 2 0 3 0 5 0 0-1 0-1 0 0 0 0 0 0 0-1-2-2-4-3-5z m3 8c-1 0 0 0 0-1l2 1-1 1c0 0-1-1-1-1z m2 19c-1-3-1-5-2-8 0-2 0-5 1-7 0 0 0-1 0-1 1 0 2 1 2 1 1 1 1 2 1 3 0 1-1 3 0 5 1 0 0 0 0 1 0 1 0 3 1 4 1 0 0 1 0 1 0 1-1 1-1 2 0 0-1 0-1 0-1 0-1 0-1-1z m1 22c0 0 2 0 2 0 0-2 1-4 0-6-1-2-1-4-2-7l0 0c0-1 0-2 0-4 0 0 0 0 1 0 0 0 1 0 1 0 2 3 4 6 4 9 0 1-1 1-1 2 0 2 0 4 2 5 0 0 0 1 0 1-1 1 0 1 0 2 1 1 1 2 1 2 1 2 0 2-2 2-1 0-2-1-3-2 0-1-1-2-3-2 0-1-1-1-1-1 0 0 0-1 0-1 0 0 0 0 1 0z m-17 22c2 0 3-1 5-1 2 0 4-1 6-1l2 0c3 0 5 3 5 5-1 3-1 5 0 8 0 1 0 1 0 2 0 1 0 2 0 3 2 1 1 3 1 4-1 2-1 3 0 5 0 0 0 1 1 2 0 0 0 0-1 0 0 1-1 1-1 0 0 0-1 0-2-1 0-2-2-3-4-5-2-1-3-3-3-4-1-2-1-4-3-5-3-3-3-7-6-10 0 0 0 0 0 0-1-1-1-2 0-2z m0 27c0 0 1 0 2 1 1 1 1 2 2 3 0 0 0 0 0 0 0 0 0 0 0 0 0 1-1 1-1 0-1 0-2-2-3-2 0-1-1-2 0-2z m-20-27c1 0 2 0 2 0 2 0 2 2 3 3 1 2 1 4 4 5 2 0 3 1 4 3 0 1 1 1 1 2 1 0 1 1 1 1-1 0-2 1 0 2 0 0 0 1 0 2 1 1 2 1 3 2 1 0 1 1 1 1 0 2 0 4-1 4-2-1-3-2-3-3-1 0-1-1-1-1-1-1-1-1-2-1-4-1-5-3-6-5 0-1-1-2 1-2 1 0 1 0 1-1-1-2-2-4-6-5 1-2 0-4-2-6 0-1 0-1 0-1z m-4 0c1 0 2 1 3 1 1 1 1 2 1 3 0 1 1 2 2 3l1 3c-3-2-5-5-7-8 0-1-1-2 0-2z m-4-17c1 1 2 1 2 2 0 0-1 1-1 1-1 0-3-1-2-1 0 0 1-1 1-2z m-11-21c0 0-1 1-1 1-2-1-4-1-5-2-2-2-3-4-5-6 0 0 0-1 1-1 0 0 0 0 0 0 1 1 1 1 2 1 1 2 3 3 5 4 2 1 3 2 3 3z m-10-13c0 0 1 0 1 0 1 2 2 3 3 5 0 0 0 0 0 0l0 1c0-1 0-1-1-1-1-1-2-3-3-5 0 0 0 0 0 0z m-11-17c0 0 1 0 1 0l-1 1 0-1c0 0 0 0 0 0z m-4-5l2 1-2 0z m2 7c0 1 0 1 0 1 0 0-1 0-1-1l0 0z m-4-4l1 0c-1 0-1 0-1 0l0 0c0 0 0 0 0 0z m-6-13c0 0 1 0 1 0 1 0 1 1 2 2 0 0 0 0 0 0-1 0-1 0-1 0-1 0-1-1-2-2 0 0 0 0 0 0z m2 5c0 0-1 0-1 0 0 0 0-1-1-1 0 0 1 0 1-1 1 1 1 1 1 1 0 1 0 1 0 1z m0 5c2 4 3 7 6 11 1 1 3 3 3 5 0 0 0 1 1 1 2 2 4 5 6 7 0 0 0 0 1 0 0 0 0 0 0 0 0-1 0-1 0-2 1 1 1 1 1 1 1 0 2 1 2 1 1 1 1 2 0 2-1 0-1 0-2 0-1 0-1 0-1 2 1 0 1 2 2 3 2 1 3 3 4 5 2 2 3 4 5 7 0 0 0 0 0 0 1 0 2 1 2 0 1 0 1 0 1 0 0-1 0-1 0-2 0 0 0 0 0 0 0 0 0 0 0 0 2 1 3 3 5 4 3 2 5 5 5 8-1 0-1 0-2 1-1 0-2 0-3-1-2-1-2 0-2 1 0 0 0 1 0 1-1 0-1 0-1-1-2-1-3-3-4-5-2-3-3-6-5-8-4-6-8-12-12-17 0-1-1-2-2-3-1-3-4-5-5-8-2-3-5-6-7-10-2-3-3-6-4-9 2 2 4 4 6 6z m-14-19c0-1 1-2 2-1 1 0 2 0 3 0 2 1 3 3 1 4-1 1-1 2-1 3 2 2 3 4 3 7-3-2-5-5-5-7 0-1-1-1-1-2-2-1-2-3-2-4z m0-10l0 0 0 0c0 0 0 0 0 0z m-1 5l0 0 1 0-1 0c0 0 0 0 0 0z m0-3l-1 1 0-1z"/>
<glyph glyph-name="praia" unicode="&#71;" d="M8 142c2 2 1 4 0 6 0 2 0 3-1 5-1 3 0 6 0 9 0 3 0 6 0 8 0 1-1 1-1 2-1-1-1-1-2-1 0-1 0-1 0-2-1-3-2-6-2-9 0-4 0-8 0-13 0-2 0-3 1-5 0-1 1-2 2-2 1 0 2 1 3 2z m0 35c-1 1-1 1-1 2-1-1-2-1-2-2 0 0 1-1 2-1 0 0 1 1 1 1z m17-7l-4-2c-1 0-1 0-1 1-1 1 2 2 3 2 1 0 1 0 2-1z m-14 14c0 0-1-1-2-2 0 0-2-1-2-1-1 1-1 2-1 2 1 5 2 9 3 13 0 0 1 1 2 1 2 1 1-1 1-2l-1-6c-1-2-3-4 0-5z m13 37c0 0-1 1-1 1-1-1-1-1-2-2 0 0 0-1 1-1 1 0 1 1 2 2z m10-14l0 1c0 0-1-1-1-1 0 0 0-1 0-1l1 0c0 0 0 1 0 1z m3 7c0 0-1 0-1 0 0-1 0-1 0-1l1 0c0 0 0 1 0 1z m-6 20c0 0-1 1-1 1-2 0-5-3-4-4 0-2 0-3-2-4 0 0-1-1-2-1 0-1 0-1 0-1 0-1 1-1 1-1 2 1 3 1 4 2 1 3 2 5 4 8z m0 7c0 1-1 1-1 2-1-1-2-1-2-1-1-2-1-3-1-4 0-1 0-2 0-2l1 0c0 0 1 1 2 1 0 2 1 3 1 4z m4 7c0 0 0 1-1 1-1 0-2 0-3-1-1 0-1-1-1-2 1 0 2 0 3 1 1 0 2 0 2 1z m4 8c-1 0-1 1-1 1-1-1-2-2-3-2 0 0 0-1 0-1 0-1 0-1 0-1 1 0 1 1 2 1 0 0 1 1 2 2z m1 5c1 1 1 2 1 3l-1 1c-1-2-2-3-3-5 0 0 0 0 0-1 2 1 3 1 3 2z m20 39c-1 1-1 1-2 1-1 0-2-1-3-1-1-3-3-5-4-7-2-4-3-7-5-10-1-3-2-7-5-9-1-1-1-2-1-2 1-2 1-3 2-4 0 0 1 0 2 1 2 3 3 6 5 9 2 5 3 9 5 14 1 2 2 5 4 7 1 0 1 1 2 1z m40-43c0 0 0 0-1 0 0 0 0 0 0 0 0-1 0-1 0-1 0 0 1 0 1 1z m29 40c1 1 0 2 0 2 0 0-1 0-1 0-1-2-3-3-4-5-3-5-8-11-12-16-5-5-11-10-17-15 0-1-1-1-1-1-1-1-1-2 0-4 0 0 1-1 1-1 1 0 1 0 2 1 3 2 6 4 9 7 0 0 1 0 1 0 0 1-1 1-1 1-3 0-1 1 0 2 0 1 2 2 3 3 4 5 11 7 14 13 1 3 3 5 3 8 0 1 2 2 2 4 1 0 1 1 1 1z m25 12c-1-1-1-2-1-3 0-3-1-6-2-9-1-1-2-2-3-4 0 0 0 0 0-1-1-1-1-3-2-3-5-5-7-12-13-16-5-4-9-9-14-13-2-2-5-3-8-4-2-1-3-2-5-3-4-3-9-6-14-7-2-1-4-2-5-3-2-3-6-4-10-6-1 0-2 0-3-1-3-2-8-3-12-4-1-1-3-1-4-1-4-2-7-4-8-8-1-4-3-7-7-10-2-1-3-3-3-5-1 0 0-1 0-1 4 0 1-1 0-2-1 0-2-1-3-1-3-1-5-2-8-3 0-1 0-1-1-1l2 0c1 0 3 1 5 2 1 0 2 0 3-1 0-1 0-2 2-3 0 0 0 0 0-1-1-1-2-2-3-4-1-1-2-1-4-2-1-1-2 0-2 1 1 2 2 4 3 5l0 2c-1 0-2 0-2 0-2-1-4-2-4-4 0-4 0-7-3-10-1-3-3-7-6-9-2 0-2-2 0-2 2-1 1-2 0-3-3-1-3-3-3-6 0-3 1-6-3-9-1 0-1 0-2 0 0 0 0 1 0 1 1 6-1 12 1 18 2 2 1 5 1 7 0 1 1 2 1 3 1 2 1 3 2 5 1 5 3 9 4 13 0 3 0 4 2 6 0 0 1 1 1 2 0 2-1 3 0 5 1 0 0 2-1 2 0 0-2 0-2-1-1-1-2-2-2-3 0-3-1-5-2-8 0-2-1-4-2-5 0-1-1-1-2-1 0 0-1-1-1 0 0 0-1 0-1 1 1 3 2 7 3 10 2 4 3 8 4 11 2 5 3 10 5 15 2 4 3 8 5 12 1 1 1 2 1 3 3 3 3 6 4 9 2 4 3 6 5 9 0 1 0 2 1 3 0 2 0 4 1 5 4 9 8 16 12 24 4 8 9 16 13 24 2 2 3 4 6 7 3 3 8 4 12 3 4-2 8-3 11-6 3-1 3-4 3-7 0-1-1-3 1-3 2-1 1-3 0-4-3-2-4-6-6-9-1-3-3-4-5-7-3-6-7-11-10-17-2-5-4-9-7-14-1-3-4-6-4-9 0-2-1-3-1-5 0 0 0-1 0-1-1-1-1-2-2-2 1 0 2 0 4 1 8 3 15 8 22 13 4 4 8 7 12 10 10 7 18 14 23 24 1 2 2 4 3 6 2 4 2 8 3 11 0 4 0 7-1 10 0 1-1 2-1 3l-4 8c-2 4-4 7-7 10-1 0-2 1-2 2-2 2-4 4-6 5-5 3-9 3-14 3-7 0-14-1-20-2-9-2-17-6-24-9-5-1-9-3-13-4-3-1-6-2-9-4-2-1-5-2-7-1-2 1-4 4-3 6 1 3 2 5 5 7 2 2 4 3 6 5 5 4 11 7 17 9 6 2 12 3 18 5 9 2 19 2 28 1 6 0 12-2 17-3 6-2 10-4 16-7 3-2 6-4 9-6 2-1 2-2 3-3 2-1 3-3 5-5 2-2 4-4 3-7 0-2 0-2 1-3 1-1 2-1 2-2 0-3 2-5 3-7 0-2 2-3 1-5-1-1 0-2 1-3 2-2 2-2 0-4-1-1-1-1 0-2 2-2 2-3 1-5z m53-99c1 2 1 2 0 3-1 0-2-1-4-1 1-1 2-2 2-2 0 0 2 0 2 0z m-5 7c-1 1-1 2-2 2l0 0-1 0c1-1 1-1 1-2 1 0 1 0 1 0z m16-12c0 1 0 2-2 2 0 0-1-1-1-1 0-1 0-2 1-3 1 1 2 1 2 2z m13-13c1 3-3 6-6 6-1 0-1 0-2-1-1 0-1-1-1-1-1 0-1-1 0-1 3-1 5-3 6-5 1 0 1 0 1 0 1 0 1 1 2 1 0 0 1 1 0 1z m-40 53c0 0-1 0-1 1 0-1 0-1-1-1 0-1 1-1 1-1 0 0 1 0 1 1z m-7 13l0 1 0 0-1 0c0 0 1 0 1-1z m9 36c0 1-1 1-3 1 0 0-1-1-3-1-2-1-5-2-8-3-1-1-3-2-5-3-2-1-1-3 0-3 0 0 0 0 0 0 6 2 10 4 15 5 1 0 2 1 2 1 1 1 3 2 2 3z m17-3c0 1-1 1-1 1l-2 0c-10-3-20-7-30-9-1 0-3-1-3-2 0-1 0-2 1-3 0 0 1 0 2 0 1 0 3 0 4 0 7 2 14 3 21 8 1 1 3 1 4 2l3 2c1 0 1 1 1 1z m-8 5c0 1 0 2-1 2-1 0-2-1-4-1 1-1 1-2 2-3 1 0 2 1 3 2z m25 9c-1 1-1 1-2 1-1 0-2 0-3-1-3-1-6-2-9-3l-6-2c0 0-1-1-1-1 0-1 1-1 1-2 1 1 2 0 2 1 5 1 10 3 16 5 0 0 0 0 1 1z m3-5c0 0 0 1 0 1-2 0-4 0-5-1-3-1-6-3-9-5 0 0-1-1-1-2 0 0 1-1 2-1 2 1 4 2 6 3 2 1 4 3 6 5 0 0 1 0 1 0z m13 25c0 0 0 2 0 2-1 0-1 1-2 1-4 0-7 1-9 4-1 1-2 1-3 1-6 1-13-1-19-3-1 0-1-1-1-1 1-1 2-1 2-2 1 0 1-1 1-1 0-1-1-1-2-1-4 0-10 0-14-1l-16-1c-1 0-1 0-2 0-1 0-2-2-2-3 0-1 1-3 1-4 0-3 1-5 3-7 1 0 2-1 1-2-1-3 1-5 0-9-1-1-1-1 0-2 0 0 1 1 2 1 0 0 0 0 0 0 3 2 4 2 7 3 4 0 9 0 13 5 1 1 2 1 3 1 2 0 5 1 8 3 1 1 2 1 4 1 3 2 7 3 11 4 1 1 3 1 4 2 3 3 6 6 10 9z m-39 6c0 1 0 2 0 2-1 0-3 1-4 0-1 0-2 0-3-1-1-1 1-2 2-2 0 0 0-1 1-1 0 0 1 0 2 1 1 0 1 0 2 1z m43 1c0 1 0 2 0 2-1 0-2 0-2 0 0-1 0-1 0-2 1 0 2 0 2 0z m6-1c0 0 0 1 0 1-1 0-1 0-2 0 0-1 1-1 1-1 0 0 0 0 1 0z m-28-104l0 1 0 0c0 0 0-1 0-1z m0 0c4-3 7-6 11-9 2-1 3-2 5-3 2-1 3-2 5-3 1-2 2-3 1-5-1-6-1-11-1-17 1-1 0-2-1-3-1-3-3-7-6-10 0 0-1-1-2-1-4-2-8-1-8 3 0 6-4 8-8 11-5 2-9 4-12 9-1 1-3 3-5 4-3 3-7 5-9 8-3 3-5 6-9 8-2 1-4 3-5 5-2 2-3 4-5 4-2 0-2 2-3 3 0 2-1 4-3 4-1 1-2 2-3 3-1 3-5 3-9 5-1 1-2 0-3-2-3-7-7-14-9-21 0-1-1-3-2-4-3-6-5-11-7-17-3-8-6-16-9-24-1-2-2-4-4-6-2-2-4-5-6-5-2 0-4 2-4 4-2 3-1 6 0 10 2 7 5 15 7 22 2 6 4 11 6 17 2 8 5 16 8 24 4 8 7 17 7 25 0 2 1 4 2 5 3 3 4 6 4 9 0 1 1 3 3 5 4 5 7 11 8 17 0 4 2 7 4 11 0 2 1 3 3 4 2 2 1 4-1 4l-3 0c-5-1 0-2-5-4-2 0-3 0-5 0-4 0-5 2-4 5 1 3 1 5 1 8-1 5 1 10 4 15 2 4 6 6 9 5 6-2 3 0 8-2 1 0 3 0 5 1 4 1 8 0 12 0 8-1 15-2 23-3 2 0 3 0 4 0 1 0 1-1 2 0 9-1 16-4 25-5 5 0 10-2 15-3 1-1 2-2 4-2 4-1 6-3 5-8-1-2 0-3 1-4 2-4 1-8-4-13-3-2-5-4-6-7 0-2-2-3-4-4-5-1-10-5-15-8-6-4-12-6-18-8-4 0-7-2-11-3-3-1-6-1-10-2-1-1-2 0-4-1-4-2-8-3-12-4-3 0-4-3-3-4 3-3 4-6 7-7 2-1 3-3 4-4 3-3 7-6 10-9 2-2 3-4 5-6 1-1 3-2 4-3 4-3 7-6 11-10 0 0 1 0 1-1-1 0-2 0-2 0-3 2-6 4-8 5-1 1-1 1-1 1-2 1-2 3-5 1-1-1 0-2 1-3 0-1 0-2 1-2 3 0 3-3 5-4 0-1 1-2 2-2 5-1 7-3 9-5 0-1 0-1 0-2-1 0-1 0-2 0 0 0-1 0-2-1 0 0 0-1 1-1 2-1 3-3 5-5 0-2 3-2 6-1 3 1 4 2 3 5-2 2-3 5-6 6-2 1-3 3-3 5z m8-53l1 0 0 0c0 0-1 0-1 0z m-1 2l0 0 0 0z m1 3l0 0 0 0 0 0z m6 7c2-1 1-3-1-3 0-1-2-1-2-1-2 0-2 0-2 1 0 2 0 3 1 4 1 1 1 1 1 2 1 2 3 4 5 6 0-2-1-4-2-6-1-1-1-2 0-3z m9 7c-1 1-1 1-1 1l0 0-2-2c0 0 0 0 0 0 0 0 1 0 1 0 1 0 1 1 2 1z m-1 4c0 0-1 0-1-1-1 0-1 0-1 0 0-1 1-1 1-1 0 0 1 1 1 1 0 0 0 1 0 1z m4 7c0 0 0 0 0 0l-1 0c0 0 1 0 1 0z m3-2l-1 0 0 0z m0 6l1 0-1 1c0 0 0 0 0-1z m3-2l-1 1 0-1c0 0 0 0 1 0 0 0 0 0 0 0z m5 13l2 0z m23 32l-2 1c0 0-1 0-3-1-1 0-1 0-1 1 0 0 0 1-1 1 0 0 0 0-1-1-1-1-2-3-3-5-2-2-3-5-5-8-4-5-8-10-11-16 0 0-1-1-2-2-1-3-4-5-5-7-1-4-4-6-6-10-2-2-3-5-4-8 2 1 4 3 5 6 2 3 4 6 6 9 2 2 3 4 3 5 0 1 0 1 1 2 2 1 4 4 6 6 0 0 0 0 1 0 0 0 0 0 0 0l0-2c0 1 1 1 1 1 1 0 1 1 2 1 1 1 0 2-1 2 0 0-1 0-1 0-1 0-1 0-1 1 1 1 1 2 2 3 2 2 2 3 3 5 2 2 3 4 5 6 0 1 0 1 0 1 1 0 2 0 2 0 1 0 1 0 1-1 0 0 0 0 0-1l0 0 0 0c2 1 3 2 5 4 2 1 4 4 4 7z m-14-24l-1 0c0 0 0 0 0 0-2-2-3-3-4-5 0 0 0 0 0 0 1 0 1 0 2 0 0 1 2 3 3 4z m5 7c0 1-1 1-1 1-2-1-4 0-5-2-2-2-3-4-4-5 0-1 0-1 0-1l1 0c0 0 1 1 1 1 1 1 3 3 5 3 2 1 3 2 3 3z m50-31c2 2 1 3 1 5 0 0-1 0-1 0 0 0-1 0-1 0 0-2-1-4-2-5l0-4c0 0 1-1 1-1 1 0 1 0 1 1 1 0 1 1 1 1-1 1 0 2 0 3z m-38 52c0 1-1 2-1 2-1 0-2-1-2-1 0-1 1-1 2-2 0 1 1 1 1 1z m38-45l1 1 0 1c-1-1-1-1-2-2 0 0 0 0 1 0z m3 7c0 1 0 3 1 5 0 0 0 0 0 1 0 1-1 2 1 4 0 0-1 1-1 1 0 0 0 1-1 1 0 0 0 1-1 1 0-1 0-1 0-1-1-3-1-5-2-8 0-2 0-4 0-6 0-1 1-1 1-2 1 0 1 1 2 1 0 1 1 2 0 3z m-33 59l1 4c-3-3-5-5-7-8 0-1-1-2 0-2 1 0 2 1 3 1 0 1 1 2 1 3 0 1 1 2 2 2z m2 4l0 0 0 0c0 0 0 0 0 0z m0 0c0 0 0 0-1 0z m38-27c1 2 0 2-1 2-2 0-3-1-3-2-1-1-2-2-3-2l-1-1c0 0 0-1 0-1 0 0 0 0 0 0l2 0c0-1 1-3 0-5 0-2-1-4-1-7l0 0c0-1 0-2 0-3 0-1 0-1 0-1 1 0 1 0 2 1 2 2 3 5 3 8 0 1-1 1-1 2 0 1 0 3 2 4 1 1 1 1 1 1-2 1-1 2 0 2 0 1 0 2 0 2z m-24 37c0 1 0 3-1 3-2 0-3-1-4-2 0-1 0-1 0-2-1 0-1 0-2 0-3-1-5-3-5-5-1-1-1-2 1-1 0 0 1-1 0-1-1-2-1-5-5-6 0-2-1-3-2-5 0-1 0-1 0-1l2 0c1 0 2 1 3 3 0 1 1 3 3 4 2 1 3 2 4 3 0 1 1 1 1 2 0 0 1 1 1 1-1 0-2 1-1 2 1 0 1 1 1 2 1 1 2 1 3 2 0 0 0 0 1 1z m21-33l0 0 0 0c0 0 0 0 0 0z m-4 16c0 2-1 5 0 7 1 1 1 2 1 2-1 1-1 2 0 3 1 1 1 3 0 4-1 1 0 2 0 4 0 1 1 1 1 2 0 1 0 1 0 1-1 0-1 0-1 0-1 0-2-1-2-2-1-1-2-3-4-4-2-1-2-3-3-4-1-2-1-4-2-5-3-3-3-6-6-9-1 0-1 0-1-1 0 0 0-1 1-1 1 0 3-1 4-1l6-1 2 0c2 0 5 3 4 5z m-12 27l-1 0c0 0 0 0-1 0 0-1-1-2-2-3 0-1-2-1 0-2 0 0 1 1 1 1 1 1 2 2 2 3 0 0 1 0 1 1z m20-24c0 0-1 0-1 1 0-1-1-1-1-1 0-1 0-2-1-2 0-1 0-1 1-2 0 0 0 0 0 0 0 0 1 0 1 0 0 1 0 2 1 4z m0 2c0 2 0 2-1 3 0 0 0 1 0 1 0 0-1-1-1-1 0 0 0-1 0-1 0-1 0-1 0-2 0 0 1 0 1 0 0 0 1 0 1 0z m-14 29c-1 0-1 1-2 0-2 0-3-2-4-4 0 0 0 0 0 0 0 0 1 0 1 0l4 3c0 0 0 1 1 1z m3 7c0 0 0 0 0 0-2-1-2-2-3-2 0-1 0-2-1-2l1 0c0 0 1 0 1 1 1 1 2 1 2 3z m2 4l0 0z m30-59c0-1-1-2-2-2-1-1-1-1-1-1-3 0-4-1-4-4-1-1-1-3-1-5-1 0 0 0 0 0 0-3 0-6-1-9 0-1 0-2-1-2-1-1-1-2 0-3 1-1 0-3 0-5-1-5-2-10-2-15 0-1 0-4-1-5-1-2-2-3-2-5-1-1-1-1-1-2 1-4 0-8 0-12-1-2-1-3-3-4 0-1-1-1-1-1-5-1-9-3-14 0 0 0 0 0 0 0-2 2-5 3-7 5-2 1-2 3-2 5 1 4 2 8 4 12 0 2 0 4 1 6 0 1 0 1 1 2 2 0 2 1 0 1-1 1-1 3 0 4 1 2 2 3 1 5-1 1 1 2 2 2 0 1 0 1 0 1l-1 0c0 0-1 0-1 1 1 1 1 3 2 5 1 1 0 3 1 5 0 1 1 3 1 4 0 1 1 3 2 4 0 0 0 1 0 1-3 0-3 1-2 2 0 3-1 6 1 8 0 1-1 2-1 2-1 0-2 0-3 0-6 0-11 1-16 0-2 0-3-1-4-2 0-2-2-3-3-4-1-2-3-4-4-6-1-1-2-3-2-4-1-2-1-3-3-4-2-2-4-5-5-8-1-2-1-3-3-4-2-1-3-3-3-5 0-1 0-2-2-3-1-2-2-4-3-5-2-2-4-3-5-5 0-1 0-1 0-1-3-3-4-6-5-9-2-2-3-5-5-7l1 0c1 0 2 0 1-1-1-1-1-1-1-2 0-1 0-2-1-2-2-2-3-4-4-7 0 0 0-1 0-1 1-1 0-2-1-2-1-1-2-3-3-4-1-2-1-3 0-4 0-1 0-1-1-2-1-1-1-1-2-1-3-1-6-2-9-2-2-1-5 0-6 2 0 1-1 1-2 1-4 1-6 3-6 7 1 3 2 6 4 9 1 0 1 1 1 2 1 4 4 8 6 11 3 6 6 11 9 16 1 1 1 1 2 2 1 2 3 3 3 5 0 1 1 2 1 2 3 3 5 6 7 9 1 2 2 4 4 6 0 2 1 3 1 4 1 0 1 1 1 1 3 3 6 6 8 10 0 0 0 1 1 1 1 3 1 3-2 3-5 0-10 0-15-1-4-1-8-2-12-3-2 0-4-1-6-2 0-1-1-1-1-2-1 0-2-1-3 0-1 1-3 1-4 2-1 1-1 2 0 3 2 1 4 2 5 3 6 3 11 5 17 6 2 1 4 2 7 2 0 0 1 1 1 1 7 0 12 3 18 3 5 1 7 4 9 7 2 3 4 6 6 10 1 1 2 2 2 3 2 3 6 6 6 10 1 2 2 3 4 5 0 0 1 1 1 1 1 2 2 4 3 6 2 1 3 3 4 5 0 1 2 2 3 3 3 6 5 11 8 16 1 1 1 2 1 2-1 1 0 2 0 3 1 1 1 2 1 3-1 1 0 2 1 2 2 2 5 3 7 4 0 0 1 0 1 0 6 1 10 0 15-2 2-1 3-4 4-6 0-2-1-3-1-5-1-1-2-3 0-5 1 0 1-1 1-2 0-4 0-8 0-11 0-1 1-2 1-3 0-1 0-2 0-3-1-2 0-4 0-6 0-1 0-2 0-3-1-3 0-6-2-9 0 0 0-1 1-2 1-1 1-2 0-4 0-2-1-4-1-7-1-1-1-2-1-3 0-1 0-1-1-2-2-1-1-1 0-3 2-1 2-3 1-6-1-2 0-3 2-4 1 0 2 0 2-1 1 0 1-1 1-1z m21-43c-1 1-1 1-1 1 0 0 0 0 0-1 0 0 0 0 0 0 0 0 0 0 1 0z m5 51c0 0-1 0-2 0 0 0-1 0-1 0 0-2-3-3-2-4 0-1-2-4-2-4-2 0-2-1-2-1 1-3 0-6 1-8 0 0 0-1 0-1-2 0-1-2-2-2 0 0 1 0 1-1 0-1-1-1-1-1-2 0-1-2-2-2-1-1-1-2-1-2 1-1 0-2-1-2 0 0 0 0-1 0 0 0 1-1 1-1 2-1 2-1 1-3 0 0 0 0-1-1 0-1 0-3-1-5-1-1 0-3-2-5 0-1 0-1 0-2 0 0 0-1 0-1 1 0 1-1 1-2 0 0 0-1 1-1 0 0 1 0 1 1 0 0 1 1 1 1 0 2 2 3 1 5 0 1 0 1 0 1 2 2 2 3 0 4 0 0 0 0 0 1 1 0 1 1 2 2 2 1 2 3 2 4 0 1 0 1 1 2 0 1 0 2 0 3 0 0-1 0-2 1-1 0-1 0 1 1 0 0 1 1 1 1 0 2 1 3 3 5 1 1 0 2 0 2-2 1-2 2 0 3 1 1 1 2 0 2 0 1 0 1 1 2 0 0 1 1 1 1-1 1-1 2 0 2 2 2 1 3 2 5z m2 3c0 1-2 2-2 2-1 0-1 0-1 0 0-1-1-1 0-2 0 0 0-1 1-1 0 0 1 0 1 0 0 0 1 1 1 1z m0 6l0 0c-1 0-1 1-1 1 0 0-1 0-1-1 0 0-1 0-1 0 0-1 0-1 0-2 1 0 1 0 2 0 0 0 0 1 0 1 0 0 0 0 1 1z m1 3l-1 0-1 0 1-1c0 0 1 1 1 1z m1 4l0 1c0 0 0 0 0 0-1 0-1 0-1 0-1-1-1-1 0-2 0 0 1 0 1 0 0 0 0 1 0 1z m34 26c-3-3-5-7-6-11 0 0 0-1 0-1-1-1-2-2-2-3-1-4-3-8-5-12-1-1-2-2-2-4-1-2-3-3-3-5 0-1-1-3-1-4 0 0 0-1 0-1-2-1-2-3-3-5-1-2-2-3-1-5 1 0 0 0 0-1-1-1-1-2-2-3-1-2-3-4-2-6 0-1 0-1-1-2 0 0 0-1-1-1-1-2-1-2-3-2-1 0-2 0-2-1-1-1-2-3-1-4 0-1 0-1 1-1 1 0 1 0 2-1 0 0 0-1-1-1 0 0-1-1-1-1 1 0 1-1-1-1-2-1-3-2-3-3 0-2-1-3-1-4-1-1-1-2-2-3 0-1 0-1 1-2 0 0-1 0-1-1-1 0-2 1-2 0 0-1 1-2 1-2 0 0 1 0 2-1 1-1 2-1 0-2-1 0-1-1-1-2 0-1-1-3-4-4-1 0-2-1-2-2 1-2-1-4-1-7 0 0-1 0-1 0 0 0-1 0-1 0 1 2 0 2-2 3-2 0-2 1-2 2 1 1 0 2 1 3 0 2 0 3 2 5 2 1 2 3 1 5l-1 0c0-2-1-2-2-2-2 0-2 0-3-1 0-1 0-2-1-2 0-2 0-3 2-4 1 0 1 0 0-1-1 0-2 0-2-1l-1-4c0-1 0-2-1-3-1-2-1-4-2-5 0-2 1-2 1-3 0-2 1-3-1-4 0 0 0-1 0-1 0-1 0-3 0-4 0 0 0-1 0-1-1 0-2 0-2 0-1 0-1 1-1 1 0 1 0 2 0 3-1 6 0 11 1 17 0 2 0 3 1 4l-1 0c2 4 3 9 4 14 0 2 0 4 1 6 1 3 2 6 3 9 0 2 0 3 0 4 1 4 2 7 4 11 1 1 1 3 1 5 0 5 3 9 5 14 1 4 3 9 4 13 2 4 4 8 5 13 1 1 2 3 2 5 0 1 0 3 2 4 0 3 1 6 0 8-1 1 0 2 0 3 4 3 8 4 13 3 1 0 3 0 4 0 3 1 6 0 8-1 2 0 3-1 5-2 0 0 0-1 0-1 0-1 0-2 1-2 2-1 2-2 1-4z m-35-135l0 0 0 0c0 0 0 0 0 0z m-2 2l0 0 0 0z m1 3l1 0-1 0 0 0z m7 7c-2 1-2 2-1 3 1 2 2 4 2 6-2-2-4-4-5-6 0-1 0-1 0-2-2-1-2-2-2-4 0-1 0-1 2-1 1 0 2 0 3 1 2 0 2 2 1 3z m8 7c0 1 0 1 0 1l-1 0-2-2c0 0 0 0 0 0 0 0 1 0 1 0 1 0 1 1 2 1z m-1 4c0 0-1 0-1-1 0 0 0 0-1 0 0-1 1-1 1-1 1 0 1 1 1 1 0 0 0 1 0 1z m4 7c0 0 0 0 0 0l0 0c0 0 0 0 0 0z m3-2l-1 0 0 0z m0 6l1 0-1 1c0 0 0 0 0-1z m3-2l0 1-1-1c0 0 1 0 1 0 0 0 0 0 0 0z m6 13l2 0z m22 32l-1 1c-1 0-2 0-3-1-2 0-2 0-2 1 0 0 0 1 0 1 0 0-1 0-1-1-1-1-3-3-4-5-1-2-3-5-5-8-3-5-7-10-11-16 0 0-1-1-1-2-2-3-4-5-6-7-1-4-4-6-6-10-1-2-3-5-4-8 3 1 4 3 6 6 1 3 3 6 6 9 1 2 3 4 3 5 0 1 0 1 0 2 2 1 4 4 6 6 0 0 1 0 1 0 0 0 0 0 0 0l0-2c1 1 1 1 1 1 1 0 2 1 2 1 1 1 1 2 0 2-1 0-1 0-2 0-1 0-1 0-1 1 1 1 1 2 2 3 2 2 3 3 4 5 1 2 3 4 4 6 0 1 0 1 1 1 0 0 1 0 1 0 1 0 1 0 1-1 0 0 0 0 0-1l0 0 1 0c1 1 2 2 4 4 3 1 4 4 4 7z m-14-24l0 0c-1 0-1 0-1 0-1-2-2-3-3-5-1 0 0 0 0 0 0 0 1 0 1 0 1 1 2 3 3 4z m5 7c0 1 0 1 0 1-2-1-4 0-6-2-1-2-3-4-4-5 0-1 0-1 0-1l1 0c0 0 1 1 1 1 1 1 3 3 5 3 2 1 3 2 3 3z m51-31c1 2 0 3 0 5 0 0-1 0-1 0 0 0 0 0 0 0-1-2-2-4-2-5l0-4c0 0 0-1 1-1 0 0 0 0 1 1 0 0 0 1 0 1 0 1 0 2 1 3z m-39 52c0 1 0 2-1 2 0 0-2-1-2-1 1-1 1-1 2-2 0 1 1 1 1 1z m38-45l2 1-1 1c0-1-1-1-1-2-1 0 0 0 0 0z m4 7c-1 1-1 3 0 5 1 0 0 0 0 1 0 1 0 2 1 4 0 0 0 1 0 1 0 0-1 1-1 1-1 0-1 1-1 1-1-1-1-1-1-1-1-3-1-5-2-8 0-2 0-4 1-6 0-1 0-1 0-2 1 0 2 1 2 1 1 1 1 2 1 3z m-34 59l1 4c-2-3-4-5-6-8-1-1-1-2 0-2 0 0 1 1 2 1 1 1 1 2 1 3 1 1 1 2 2 2z m2 4l1 0-1 0c0 0 0 0 0 0z m39-27c0 2 0 2-2 2-1 0-2-1-3-2-1-1-1-2-3-2l-1-1c0 0 0-1 0-1 0 0 0 0 1 0l2 0c0-1 0-3 0-5-1-2-2-4-2-7l0 0c0-1 0-2 0-3 0-1 0-1 0-1 1 0 2 0 2 1 2 2 4 5 4 8 0 1-1 1-1 2 0 1 0 3 2 4 0 1 0 1 0 1-1 1-1 2 0 2 0 1 1 2 1 2z m-25 37c0 1 0 3-1 3-2 0-2-1-3-2 0-1 0-1-1-2 0 0-1 0-1 0-4-1-5-3-6-5 0-1-1-2 1-1 0 0 1-1 1-1-2-2-2-5-6-6 1-2 0-3-2-5 0-1 0-1 1-1l1 0c2 0 2 1 3 3 0 1 1 3 3 4 2 1 3 2 4 3 0 1 1 1 2 2 0 0 0 1 0 1-1 0-1 1 0 2 0 0 0 1 1 2 0 1 1 1 2 2 1 0 1 0 1 1z m22-33l-1 0 1 0c0 0 0 0 0 0z m-5 16c0 2 0 5 1 7 0 1 0 2 0 2-1 1-1 2 0 3 1 1 1 3 1 4-1 1-1 2 0 4 0 1 0 1 0 2 0 1 0 1 0 1 0 0-1 0-1 0-1 0-1-1-2-2 0-1-2-3-4-4-1-1-2-3-3-4 0-2-1-4-2-5-3-3-3-6-6-9 0 0 0 0 0-1-1 0-1-1 0-1 2 0 3-1 5-1l5-1 2 0c3 0 5 3 4 5z m-12 27l0 0c-1 0-1 0-1 0-1-1-2-2-3-3 0-1-1-1 0-2 0 0 1 1 2 1 0 1 1 2 2 3 0 0 0 0 0 1z m20-24c0 0 0 0-1 1 0-1-1-1-1-1 0-1 0-2 0-2 0-1 0-1 0-2 0 0 0 0 0 0 1 0 1 0 1 0 1 1 1 2 1 4z m0 2c0 2 0 2 0 3 0 0 0 1-1 1 0 0 0-1-1-1 0 0 0-1 0-1 0-1 0-1 0-2 0 0 1 0 1 0 1 0 1 0 1 0z m-14 29c-1 0-1 1-1 0-3 0-4-2-4-4-1 0 0 0 0 0 0 0 0 0 0 0l4 3c1 0 1 1 1 1z m3 7c0 0 0 0 0 0-2-1-2-2-2-2-1-1-1-2-1-2l0 0c1 0 1 0 2 1 0 1 2 1 1 3z m2 4l1 0z m31-59c-1-1-1-2-3-2 0-1-1-1-1-1-2 0-4-1-4-4 0-1 0-3-1-5 0 0 0 0 0 0 0-3 1-6 0-9-1-1-1-2-2-2-1-1-1-2 0-3 1-1 1-3 0-5-1-5-1-10-2-15 0-1 0-4-1-5-1-2-1-3-2-5 0-1 0-1 0-2 1-4 0-8-1-12 0-2-1-3-3-4 0-1-1-1-1-1-4-1-9-3-13 0 0 0-1 0-1 0-1 2-5 3-7 5-2 1-2 3-1 5 1 4 2 8 3 12 0 2 0 4 1 6 0 1 1 1 1 2 3 0 3 1 0 1-1 1-1 3 0 4 1 2 2 3 1 5 0 1 2 2 2 2 1 1 1 1 1 1l-1 0c-1 0-2 0-1 1 0 1 1 3 1 5 1 1 1 3 1 5 0 1 1 3 1 4 1 1 1 3 2 4 1 0 1 1 0 1-2 0-2 1-2 2 0 3 0 6 1 8 0 1 0 2-1 2-1 0-2 0-3 0-5 0-10 1-15 0-3 0-4-1-5-2 0-2-1-3-3-4-1-2-2-4-4-6-1-1-2-3-2-4 0-2-1-3-2-4-3-2-5-5-6-8 0-2-1-3-3-4-1-1-2-3-2-5 0-1-1-2-2-3-1-2-3-4-4-5-2-2-3-3-4-5-1-1-1-1-1-1-2-3-4-6-5-9-1-2-3-5-4-7l0 0c1 0 2 0 1-1 0-1-1-1-1-2 0-1 0-2-1-2-2-2-2-4-3-7-1 0-1-1 0-1 0-1 0-2-1-2-2-1-3-3-4-4-1-2-1-3 0-4 1-1 1-1-1-2 0-1-1-1-2-1-3-1-6-2-8-2-3-1-5 0-7 2 0 1-1 1-2 1-4 1-6 3-5 7 0 3 1 6 3 9 1 0 2 1 2 2 0 4 3 8 5 11 3 6 6 11 9 16 1 1 1 1 2 2 2 2 3 3 3 5 0 1 1 2 2 2 3 3 5 6 6 9 1 2 2 4 4 6 1 2 1 3 2 4 0 0 0 1 1 1 3 3 5 6 7 10 0 0 1 1 1 1 2 3 1 3-2 3-5 0-10 0-15-1-4-1-8-2-12-3-2 0-4-1-5-2-1-1-2-1-2-2-1 0-2-1-3 0-1 1-3 1-4 2-1 1 0 2 1 3 1 1 3 2 5 3 5 3 11 5 16 6 3 1 5 2 7 2 1 0 1 1 2 1 6 0 12 3 18 3 4 1 6 4 8 7 2 3 5 6 7 10 0 1 1 2 2 3 1 3 5 6 6 10 0 2 1 3 3 5 1 0 1 1 1 1 1 2 2 4 4 6 1 1 2 3 3 5 1 1 2 2 3 3 3 6 6 11 9 16 0 1 0 2 0 2 0 1 0 2 1 3 0 1 0 2 0 3 0 1 1 2 2 2 2 2 4 3 6 4 0 0 1 0 2 0 5 1 10 0 14-2 3-1 4-4 4-6 0-2 0-3-1-5 0-1-1-3 1-5 0 0 0-1 0-2 0-4 0-8 1-11 0-1 0-2 0-3 0-1 1-2 0-3 0-2 0-4 0-6 1-1 1-2 0-3 0-3 1-6-1-9-1 0 0-1 0-2 1-1 1-2 1-4-1-2-2-4-2-7 0-1 0-2-1-3 0-1 0-1 0-2-2-1-2-1-1-3 2-1 2-3 1-6 0-2 1-3 3-4 0 0 1 0 1-1 1 0 2-1 2-1z"/>
<glyph glyph-name="ok-pontos" unicode="&#72;" d="M451 291l-101 0c-7 0-13 5-13 12 0 7 6 13 13 13l101 0c7 0 13-6 13-13 0-7-6-12-13-12z m-120 70c-2-2-5-4-9-4-3 0-6 2-9 4-5 5-5 13 0 18l72 72c5 5 13 5 18 0 5-5 5-13 0-18z m31-125l12 0c12 0 24-5 34-13 14-12 21-31 18-50l-20-122c-2-17-10-32-23-40-10-7-24-11-39-11l-151 0c-14 0-27 6-37 15-4-3-10-6-16-6l-48 0c-15 0-26 12-26 26l0 158c0 15 11 27 26 27l48 0c7 0 14-4 19-9l1 0c2 1 16 5 29 15 18 13 27 29 27 47l0 62c0 6 4 11 9 12 1 1 32 10 55-7 14-10 21-28 21-53l0-51z m-221-43c0 1-1 1-1 1l-48 0c-1 0-1 0-1-1l0-158c0 0 0 0 1 0l48 0c0 0 1 0 1 0z m148 18c-7 0-13 5-13 12l0 64c0 16-4 27-11 33-7 5-17 5-24 5l0-52c0-27-13-51-38-68-17-13-35-18-36-18 0 0 0-1 0-1l-1 0 0-136c0 0 0-1 0-1 2-14 14-24 27-24l151 0c34 0 36 22 37 30 0 0 0 0 0 0l20 122c1 10-2 21-10 27-5 4-11 7-17 7z m-33 174c-7 0-13 6-13 13l0 101c0 7 6 13 13 13 7 0 13-6 13-13l0-101c0-7-6-13-13-13z m-66-28c-4 0-7 2-9 4l-72 72c-5 5-5 13 0 18 5 5 13 5 18 0l72-72c5-5 5-13 0-18-3-2-6-4-9-4z m-15-54c0-7-6-12-13-12l-101 0c-7 0-13 5-13 12 0 7 6 13 13 13l101 0c7 0 13-6 13-13z"/>
<glyph glyph-name="categorias" unicode="&#73;" d="M298 244l-41 0c-32 0-58 25-58 57 0 31 26 57 58 57l8 0 0 30c0 7 5 13 12 13 7 0 13-6 13-13l0-30 39 0c7 0 13-6 13-13 0-6-6-12-13-12l-72 0c-18 0-33-14-33-32 0-18 15-32 33-32l41 0c32 0 58-26 58-57 0-31-26-57-57-57-1 0-1 0-1 0l-8 0 0-31c0-7-6-12-13-12-7 0-12 5-12 12l0 31-41 0c-7 0-13 5-13 12 0 7 6 13 13 13l74 0c18 0 32 14 32 32 0 17-14 32-32 32z m145-151c-44-44-103-68-166-68-62 0-121 24-166 68-44 43-69 101-69 163l0 3-20-21c-5-5-13-5-18 0-5 5-5 13 0 18l42 41c5 5 13 5 18 0l42-41c5-5 5-13 0-18-2-2-5-4-9-4-3 0-6 2-8 4l-21 21 0-3c0-114 94-206 209-206 116 0 210 92 210 206 0 114-94 206-210 206-57 0-110-22-150-62-5-5-13-5-18 0-5 5-5 12 0 17 45 45 104 70 168 70 63 0 122-24 166-68 45-43 69-101 69-163 0-62-24-120-69-163z"/>
<glyph glyph-name="success" unicode="&#74;" d="M256 0c-141 0-256 115-256 256 0 141 115 256 256 256 141 0 256-115 256-256 0-141-115-256-256-256z m0 478c-123 0-222-99-222-222 0-123 99-222 222-222 123 0 222 99 222 222 0 123-99 222-222 222z m-27-306c0 0 0 0 0 0-4-3-8-5-12-5-5 0-9 2-12 5l-65 65c-7 7-7 18 0 24 6 7 17 7 23 0l54-53 132 132c6 6 17 6 23 0 7-7 7-17 0-24z"/>
<glyph glyph-name="search" unicode="&#75;" d="M334 218l170-169-41-41-169 170c-31-23-68-36-109-36-102 0-185 83-185 185 0 102 83 185 185 185 102 0 185-83 185-185 0-41-13-78-36-109z m-149-19c71 0 128 57 128 128 0 71-57 128-128 128-71 0-128-57-128-128 0-71 57-128 128-128z"/>
<glyph glyph-name="like" unicode="&#76;" d="M175 303c0 7-5 13-12 13l-101 0c-7 0-13-6-13-13 0-7 6-12 13-12l101 0c7 0 12 5 12 12z m275 13l-101 0c-7 0-12-6-12-13 0-7 5-12 12-12l101 0c7 0 13 5 13 12 0 7-6 13-13 13z m-194 69c7 0 13 6 13 13l0 101c0 7-6 13-13 13-7 0-13-6-13-13l0-101c0-7 6-13 13-13z m66-28c3 0 7 2 9 4l71 72c5 5 5 13 0 18-2 2-5 4-9 4-3 0-6-2-9-4l-71-72c-5-5-5-13 0-18 3-2 6-4 9-4z m-141 4c2-2 6-4 9-4 5 0 10 3 12 8 2 5 1 10-3 14l-71 72c-3 2-6 4-9 4-4 0-7-2-9-4-5-5-5-13 0-18z m226-138c-10 8-22 13-34 13l-72 0 0 51c0 25-7 43-21 53-23 17-54 8-55 7-5-1-9-6-9-12l0-62c0-19-10-37-26-47-9-7-19-11-29-15l-1 0c-5 5-12 9-20 9l-47 0c-15 0-26-12-26-27l0-158c0-14 11-26 26-26l47 0c6 0 12 2 17 6 10-9 23-15 37-15l150 0c13 0 27 3 38 11 14 9 22 24 24 41l19 121c3 19-4 38-18 50z m-266-188c0 0 0 0 0 0 0 0 0 0-1 0l-47 0c-1 0-1 0-1 0 0 0 0 0 0 0l0 158c0 1 0 1 0 1 0 0 0 0 1 0l47 0c1 0 1 0 1 0 0 0 0 0 0-1z m259 142l-19-122c0 0 0 0 0 0-1-8-4-30-37-30l-150 0c-14 0-25 10-27 24-1 0-1 1-1 1l0 136 1 1c0 0 0 0 0 0 13 4 26 10 37 18 23 15 37 41 37 68l0 52c8 1 17-1 24-5 7-6 11-17 11-33l0-63c0-7 6-13 13-13l84 0c6 0 13-3 18-7 7-7 11-17 9-27z"/>
<glyph glyph-name="thousand" unicode="&#77;" d="M0 300l29 0 0-115 32 0 0 142-61 0z m154 28c-18 1-35-5-47-18-11-13-16-31-16-54 0-23 5-41 16-54 12-13 29-19 47-18 17-1 34 5 46 18 11 13 16 31 16 54 0 23-5 41-16 54-12 13-29 19-46 18z m0-24c9 0 17-4 22-12 9-23 9-49 0-72-5-8-13-12-22-12-9 0-18 4-23 12-9 23-9 49 0 72 5 8 14 12 23 12z m148 24c-18 1-35-5-47-18-11-13-16-31-16-54 0-23 5-41 16-54 12-13 29-19 47-18 17-1 34 5 46 18 11 13 16 31 16 54 0 23-5 41-16 54-12 13-29 19-46 18z m0-24c8 0 17-4 22-12 9-23 9-49 0-72-5-8-13-12-22-12-10 0-18 4-23 12-9 23-9 49 0 72 5 8 14 12 23 12z m148 24c-18 1-35-5-47-18-11-13-16-31-16-54 0-23 5-41 16-54 12-13 29-19 47-18 17-1 34 5 46 18 11 13 16 31 16 54 0 23-5 41-16 54-12 13-29 19-46 18z m0-24c8 0 17-4 22-12 9-23 9-49 0-72-5-8-14-12-22-12-10 0-18 4-23 12-10 23-10 49 0 72 5 8 13 12 23 12z"/>
<glyph glyph-name="money" unicode="&#78;" d="M292 281l-72 0c-19 0-37 10-47 27-10 16-10 37 0 54 10 16 28 27 47 26l127 0c13 0 24 11 24 25 0 13-11 24-24 24l-66 0 0 50c0 14-11 25-25 25-13 0-24-11-24-25l0-50-12 0c-37 1-71-19-89-51-19-32-19-71 0-103 18-32 52-51 89-51l72 0c30 0 54-24 54-54 0-29-24-53-54-53l-129 0c-13 0-24-11-24-25 0-13 11-24 24-24l68 0 0-51c0-14 11-25 25-25 14 0 25 11 25 25l0 51 12 0c57 0 103 46 102 103 0 57-46 102-103 102z"/>
<glyph glyph-name="close" unicode="&#79;" d="M444 125l-132 132 132 130c5 5 5 14 0 19l-37 38c-3 2-7 4-10 4-4 0-7-2-10-4l-131-130-131 130c-3 2-6 4-10 4-4 0-7-2-10-4l-37-38c-5-5-5-14 0-20l132-130-132-131c-2-3-4-6-4-10 0-4 2-7 4-10l38-37c3-3 6-4 10-4 3 0 7 1 9 4l131 131 131-131c2-3 6-4 10-4 3 0 7 1 9 4l38 37c2 3 4 6 4 10 0 4-2 7-4 10z"/>
</font>
</defs>
</svg>
